<?xml version="1.0" standalone="no"?>
<!DOCTYPE svg PUBLIC "-//W3C//DTD SVG 20010904//EN"
 "http://www.w3.org/TR/2001/REC-SVG-20010904/DTD/svg10.dtd">
<svg version="1.0" xmlns="http://www.w3.org/2000/svg"
 width="92.000000pt" height="92.000000pt" viewBox="0 0 92.000000 92.000000"
 preserveAspectRatio="xMidYMid meet">
<metadata>
Created by potrace 1.11, written by Peter Selinger 2001-2013
</metadata>
<g transform="translate(0.000000,92.000000) scale(0.100000,-0.100000)"
fill="#000000" stroke="none">
<path d="M465 840 c-11 -12 -46 -35 -77 -51 -31 -16 -59 -33 -63 -39 -3 -5
-13 -10 -22 -10 -11 0 -14 7 -11 25 7 34 -4 31 -41 -10 -59 -67 -121 -225
-121 -306 0 -22 -7 -56 -16 -77 -9 -20 -18 -62 -20 -92 -2 -30 -6 -79 -10
-109 -5 -46 -4 -53 9 -48 12 5 17 -2 19 -31 l3 -37 94 -6 c51 -3 206 -5 343
-3 270 2 268 2 268 57 0 16 5 26 13 25 19 -4 20 49 3 93 -12 30 -13 45 -6 59
8 16 5 32 -15 75 -22 46 -26 68 -26 148 -1 93 -11 139 -24 105 -17 -43 -65
-26 -65 23 0 19 -5 29 -15 29 -9 0 -15 9 -15 25 0 23 -2 24 -20 15 -27 -14
-37 9 -23 55 l11 34 -39 -25 c-48 -30 -53 -11 -10 35 l29 31 -28 0 c-15 0 -43
-11 -63 -24 l-36 -25 -3 41 -3 40 -20 -22z m240 -354 c31 -13 35 -19 35 -51 0
-43 -22 -55 -51 -29 -15 14 -40 20 -93 22 -67 4 -75 2 -105 -24 -31 -26 -35
-27 -83 -16 -71 17 -135 15 -169 -5 -21 -13 -32 -14 -40 -6 -15 15 -16 80 0
96 16 16 139 15 209 -2 50 -12 55 -12 75 7 12 12 33 25 46 30 28 10 128 -2
176 -22z m-125 -112 c0 -14 -21 -19 -33 -7 -9 9 13 34 24 27 5 -3 9 -12 9 -20z
m-183 -9 c2 -6 -21 -11 -54 -11 -52 -2 -55 0 -38 13 22 15 86 14 92 -2z m162
-41 c28 -20 53 -76 45 -101 -5 -17 -5 -17 9 0 15 18 17 17 36 -22 24 -45 27
-93 9 -109 -17 -13 -368 -13 -385 1 -19 14 -15 56 7 106 19 42 21 43 35 25 13
-18 14 -16 15 19 0 29 7 46 29 68 27 27 35 29 103 29 52 0 80 -5 97 -16z"/>
<path d="M379 277 c-18 -19 -32 -57 -21 -57 3 0 14 8 25 18 28 25 137 24 166
-2 17 -16 21 -16 21 -4 0 9 -8 26 -18 38 -16 20 -29 23 -87 24 -55 1 -72 -3
-86 -17z"/>
</g>
</svg>
