<svg width="120" height="17" viewBox="0 0 120 17" fill="none" xmlns="http://www.w3.org/2000/svg">
<rect width="120" height="17" fill="black" fill-opacity="0"/>
<path fill-rule="evenodd" clip-rule="evenodd" d="M119.574 13.3196C119.072 14.7096 117.927 15.1641 116.585 15.2246C115.273 15.2836 113.957 15.2466 112.643 15.2361C112.002 15.2311 111.586 14.8346 111.581 14.1791C111.565 11.8026 111.566 9.42613 111.58 7.05013C111.585 6.35013 111.981 5.98563 112.683 5.98263C113.957 5.97663 115.233 5.94863 116.505 6.00063C118.094 6.06513 119.133 7.12313 119.069 8.52063C119.034 9.27313 118.782 9.69563 117.918 10.3996C118.711 10.7101 119.278 11.2271 119.574 11.9996V13.3196Z" fill="black"/>
<path fill-rule="evenodd" clip-rule="evenodd" d="M6.06986 8.1175C5.08758 9.8555 4.10378 11.5925 3.12302 13.331C2.78986 13.921 2.2815 14.264 1.60251 14.249C0.900742 14.2335 0.383273 13.8785 0.101248 13.2235C0.078463 13.171 0.0344123 13.1275 0.000488281 13.0795V12.1195C0.346817 11.0105 1.03036 10.0685 1.57112 9.056C2.11441 8.039 2.68606 7.037 3.26378 6.038C4.20555 4.348 5.14074 2.654 6.08657 0.966C6.35897 0.4795 6.69365 0.084 7.29112 0H8.26327C9.33264 0.618 9.54327 1.06 9.34125 2.2615C9.11188 3.141 8.54884 3.857 8.13264 4.645C7.59492 5.665 7.02682 6.67 6.43998 7.664C6.34074 7.8325 6.27441 8.031 6.06986 8.1175Z" fill="black"/>
<path fill-rule="evenodd" clip-rule="evenodd" d="M0 3.72022C0.195443 3.65372 0.226835 3.45172 0.338228 3.31622C0.810633 2.73872 1.49013 2.52822 2.16709 2.75872C2.87038 2.99772 3.24557 3.53772 3.28557 4.29272C3.31797 4.89822 3.16152 5.51472 3.38279 6.11072C2.25519 8.11372 1.12759 10.1167 0 12.1202V3.72022Z" fill="black"/>
<path fill-rule="evenodd" clip-rule="evenodd" d="M43.4834 8.36888C43.4834 6.29088 43.4976 4.21238 43.4728 2.13438C43.4672 1.59988 43.6626 1.44438 44.1821 1.45088C46.0439 1.47288 47.9052 1.44738 49.767 1.46188C52.2307 1.48138 53.7994 3.06638 53.8626 5.48838C53.9092 7.26988 53.3994 8.71438 51.6849 9.55038C51.3168 9.73038 51.6049 9.93538 51.6824 10.0819C52.4718 11.5639 53.2799 13.0359 54.0819 14.5114C54.5067 15.2929 54.4652 15.3589 53.5502 15.3599C52.8824 15.3604 52.213 15.3324 51.5477 15.3699C51.1204 15.3939 50.887 15.2394 50.6966 14.8724C49.9786 13.4894 49.2338 12.1199 48.5006 10.7444C48.2682 10.3094 47.2672 9.99988 46.8551 10.2429C46.6551 10.3609 46.7305 10.5644 46.7295 10.7324C46.7224 12.0309 46.7082 13.3299 46.7295 14.6289C46.7386 15.1654 46.5502 15.3969 45.9877 15.3674C45.3624 15.3344 44.733 15.3434 44.1062 15.3654C43.6302 15.3814 43.4728 15.1844 43.4758 14.7229C43.493 12.6049 43.4834 10.4869 43.4834 8.36888Z" fill="black"/>
<path fill-rule="evenodd" clip-rule="evenodd" d="M83.3 11.1645C82.6139 12.3555 81.9319 13.4875 81.306 14.6485C81.0255 15.169 80.6939 15.425 80.0706 15.3725C79.4078 15.317 78.7349 15.3675 78.0671 15.358C77.4939 15.3495 77.4083 15.2085 77.6939 14.719C78.8625 12.713 80.0301 10.706 81.223 8.71455C81.4341 8.36155 81.4503 8.11655 81.2215 7.75855C80.0346 5.90305 78.8802 4.02755 77.7182 2.15605C77.3683 1.59305 77.4382 1.46505 78.0863 1.46105C78.8964 1.45605 79.7071 1.48005 80.5162 1.45105C80.9374 1.43605 81.1921 1.59955 81.4007 1.94205C82.0868 3.07105 82.7901 4.19055 83.4893 5.31205C83.5303 5.37705 83.5921 5.42955 83.663 5.50905C84.3222 4.33805 84.9774 3.19705 85.6073 2.04205C85.8311 1.63055 86.101 1.41455 86.6068 1.44905C87.2519 1.49305 87.9025 1.44955 88.5501 1.46455C88.8002 1.47005 89.1263 1.33855 89.2772 1.61455C89.4083 1.85555 89.1536 2.05705 89.0377 2.25455C87.9136 4.17155 86.7896 6.08805 85.6407 7.99005C85.4458 8.31205 85.46 8.53055 85.6564 8.84155C86.8544 10.7385 88.0281 12.65 89.2093 14.5575C89.3339 14.7585 89.5628 14.967 89.4514 15.202C89.3116 15.498 88.9805 15.348 88.7354 15.3535C87.9866 15.3715 87.2362 15.343 86.4883 15.3665C86.0721 15.38 85.823 15.2225 85.6103 14.871C84.8655 13.64 84.0903 12.4265 83.3 11.1645Z" fill="black"/>
<path fill-rule="evenodd" clip-rule="evenodd" d="M25.1812 15.3595C24.6349 15.3595 24.088 15.3705 23.5417 15.3565C22.7944 15.3375 22.448 15.086 22.2779 14.391C21.2653 10.263 20.2663 6.13152 19.2536 2.00402C19.1483 1.57602 19.3361 1.45752 19.7149 1.45902C20.444 1.46152 21.1731 1.47902 21.9007 1.45302C22.3473 1.43702 22.5427 1.59702 22.6374 2.03852C23.2987 5.12102 23.9863 8.19852 24.6647 11.2775C24.7468 11.6475 24.8283 12.0175 24.9068 12.3885C24.9478 12.5815 24.9523 12.834 25.2207 12.82C25.4496 12.8075 25.443 12.5535 25.4789 12.3925C25.7847 11.0295 26.0764 9.66302 26.3741 8.29802C26.8207 6.25102 27.2825 4.20702 27.7068 2.15552C27.8156 1.63052 28.0334 1.40552 28.5979 1.44852C29.2425 1.49652 29.8946 1.48652 30.5402 1.45152C31.0972 1.42102 31.2075 1.64802 31.088 2.13352C30.4612 4.67102 29.846 7.21102 29.2253 9.75002C28.8516 11.281 28.4815 12.813 28.0982 14.3415C27.9103 15.091 27.5903 15.34 26.8207 15.3575C26.2744 15.3695 25.7275 15.3595 25.1812 15.3595Z" fill="black"/>
<path fill-rule="evenodd" clip-rule="evenodd" d="M67.0782 8.40138C67.0782 6.34238 67.0939 4.28338 67.0676 2.22488C67.061 1.66288 67.22 1.44188 67.8225 1.44838C70.2311 1.47538 72.6402 1.47238 75.0488 1.44988C75.5856 1.44488 75.7805 1.62238 75.7339 2.14438C75.6975 2.54088 75.704 2.94488 75.7319 3.34288C75.7638 3.80638 75.5962 3.97938 75.1086 3.96938C73.7532 3.94288 72.3962 3.97638 71.0402 3.95188C70.5218 3.94288 70.3005 4.10288 70.3309 4.63888C70.3668 5.27638 70.3587 5.91838 70.3319 6.55738C70.3167 6.90688 70.4402 6.99088 70.778 6.98638C72.1339 6.96938 73.4909 6.99788 74.8468 6.97088C75.3845 6.95988 75.6453 7.10488 75.5921 7.67988C75.5537 8.09588 75.5582 8.52038 75.5911 8.93788C75.6316 9.44888 75.3471 9.54638 74.9243 9.54488C73.5678 9.53938 72.2114 9.56238 70.8559 9.53188C70.4159 9.52188 70.3111 9.65688 70.3304 10.0674C70.3638 10.7854 70.3562 11.5064 70.3339 12.2254C70.3197 12.6679 70.4985 12.8304 70.941 12.8259C72.3172 12.8104 73.6939 12.8364 75.0701 12.8119C75.5719 12.8029 75.7699 12.9709 75.7334 13.4714C75.7 13.9289 75.7137 14.3909 75.7299 14.8499C75.743 15.2139 75.5688 15.3599 75.223 15.3599C72.6924 15.3594 70.1623 15.3579 67.6321 15.3614C67.1628 15.3619 67.0716 15.0979 67.0737 14.6984C67.0838 12.5994 67.0782 10.5004 67.0782 8.40138Z" fill="black"/>
<path fill-rule="evenodd" clip-rule="evenodd" d="M32.6304 8.41587C32.6304 6.33587 32.6446 4.25587 32.6203 2.17637C32.6142 1.62887 32.7899 1.44287 33.3534 1.44887C35.7631 1.47387 38.1732 1.46837 40.5833 1.45237C41.0932 1.44837 41.3458 1.59487 41.3028 2.13637C41.2709 2.53437 41.2815 2.93687 41.3003 3.33587C41.322 3.79887 41.1276 3.97437 40.6532 3.96737C39.2967 3.94687 37.9387 3.97787 36.5828 3.95137C36.0228 3.94087 35.8162 4.15237 35.841 4.69337C35.8699 5.31187 35.8663 5.93387 35.8405 6.55237C35.8263 6.89187 35.9332 6.99137 36.278 6.98737C37.6755 6.96887 39.0734 6.99637 40.4699 6.97087C40.9828 6.96137 41.1641 7.15787 41.1377 7.64087C41.1155 8.03987 41.1119 8.44237 41.1413 8.84037C41.1798 9.36137 40.9595 9.55637 40.437 9.54887C39.08 9.52987 37.7225 9.56137 36.3661 9.53187C35.9352 9.52237 35.8162 9.63937 35.8375 10.0584C35.8739 10.7769 35.8587 11.4984 35.8441 12.2179C35.835 12.6539 36.0238 12.8279 36.4623 12.8239C37.8395 12.8124 39.2172 12.8374 40.5944 12.8114C41.1241 12.8014 41.3352 12.9894 41.3018 13.5094C41.275 13.9274 41.2881 14.3489 41.2987 14.7689C41.3099 15.1669 41.1367 15.3619 40.7241 15.3614C38.2127 15.3579 35.7013 15.3534 33.1899 15.3644C32.6562 15.3669 32.6208 15.0544 32.6218 14.6559C32.6279 12.5759 32.6248 10.4959 32.6248 8.41587H32.6304Z" fill="black"/>
<path fill-rule="evenodd" clip-rule="evenodd" d="M58.6943 9.64622C58.6943 7.96822 58.6786 6.29022 58.7049 4.61272C58.7115 4.18322 58.5819 4.07272 58.1626 4.09022C57.3753 4.12372 56.5849 4.08422 55.7961 4.10622C55.3743 4.11772 55.2102 3.96022 55.229 3.54672C55.2502 3.06872 55.2563 2.58722 55.2274 2.10922C55.1976 1.61072 55.4026 1.44822 55.9004 1.45172C58.4492 1.46922 60.9981 1.45922 63.5469 1.45922C63.992 1.45922 64.4371 1.46072 64.8821 1.45922C65.2285 1.45822 65.4042 1.61422 65.3991 1.96822C65.3925 2.50722 65.3885 3.04672 65.4001 3.58572C65.4092 3.97622 65.2275 4.11272 64.8447 4.10472C64.0563 4.08872 63.2659 4.12522 62.4791 4.09022C62.0442 4.07122 61.9444 4.21622 61.9464 4.62672C61.9626 7.92272 61.9556 11.2187 61.955 14.5142C61.955 15.3152 61.91 15.3587 61.0943 15.3597C60.5282 15.3607 59.9606 15.3392 59.3955 15.3657C58.8821 15.3902 58.6745 15.2187 58.6837 14.6797C58.712 13.0022 58.6943 11.3242 58.6943 9.64622Z" fill="black"/>
<path fill-rule="evenodd" clip-rule="evenodd" d="M108.132 9.9381C107.605 10.7406 107.084 11.5471 106.55 12.3451C105.961 13.2251 105.239 13.2206 104.643 12.3336C104.131 11.5721 103.632 10.8026 103.113 10.0141C102.93 10.1586 102.995 10.3276 102.994 10.4691C102.988 11.6086 102.993 12.7486 102.989 13.8881C102.988 14.0871 102.979 14.2886 102.945 14.4841C102.849 15.0356 102.426 15.3781 101.893 15.3531C101.358 15.3276 100.937 14.9476 100.933 14.3831C100.916 11.9036 100.919 9.4236 100.928 6.9441C100.929 6.4251 101.21 6.0761 101.733 5.9586C102.317 5.8271 102.827 5.9436 103.161 6.4751C103.897 7.6456 104.621 8.8221 105.352 9.9961C105.424 10.1116 105.503 10.2241 105.626 10.4111C105.868 10.0331 106.081 9.7091 106.286 9.3806C106.869 8.4466 107.445 7.5081 108.031 6.5756C108.411 5.9701 108.913 5.7801 109.577 5.9736C110.192 6.1531 110.344 6.6106 110.342 7.1811C110.336 9.4806 110.341 11.7806 110.338 14.0801C110.337 14.8691 109.935 15.3506 109.29 15.3566C108.649 15.3626 108.257 14.8846 108.254 14.0796C108.25 12.7076 108.253 11.3351 108.253 9.9631L108.132 9.9381Z" fill="black"/>
<rect width="9.42643" height="14.2842" fill="black" fill-opacity="0" transform="translate(6.09375 2.54736)"/>
<mask id="mask0" mask-type="alpha" maskUnits="userSpaceOnUse" x="6" y="2" width="10" height="15">
<path fill-rule="evenodd" clip-rule="evenodd" d="M6.09375 2.54736H15.5202V16.8316H6.09375V2.54736Z" fill="white"/>
</mask>
<g mask="url(#mask0)">
<path fill-rule="evenodd" clip-rule="evenodd" d="M12.066 10.7773C11.1531 12.4133 10.2397 14.0493 9.32726 15.6863C8.79461 16.6418 8.08625 17.0038 7.22448 16.7558C6.41283 16.5218 6.026 15.8343 6.10347 14.7613C6.25688 13.9173 6.78701 13.2458 7.17486 12.5103C7.79613 11.3313 8.48423 10.1873 9.12929 9.02032C9.18701 8.91582 9.25182 8.81382 9.37435 8.76832C10.3516 7.04682 11.3308 5.32632 12.306 3.60332C12.7663 2.78982 13.4255 2.42482 14.1713 2.58382C15.0174 2.76432 15.4463 3.31782 15.5202 4.32632C15.506 5.26282 14.8938 5.95432 14.4873 6.72232C13.8787 7.87282 13.226 9.00082 12.59 10.1373C12.4549 10.3788 12.346 10.6478 12.066 10.7773Z" fill="black"/>
</g>
<path fill-rule="evenodd" clip-rule="evenodd" d="M96.2804 15.3614C95.0692 15.4004 93.9741 15.0379 92.9736 14.3849C92.4373 14.0349 92.291 13.4614 92.5908 12.9929C92.9011 12.5079 93.5219 12.4059 94.0799 12.7824C94.8353 13.2909 95.6404 13.6209 96.571 13.5554C96.7892 13.5399 97.0151 13.4984 97.2166 13.4179C97.5118 13.2999 97.7062 13.0899 97.7249 12.7404C97.7432 12.3934 97.5867 12.1749 97.2966 12.0154C96.8495 11.7704 96.3523 11.6714 95.8713 11.5234C95.3518 11.3639 94.8232 11.2244 94.3179 11.0274C93.3173 10.6379 92.773 9.90189 92.7417 8.82889C92.7082 7.71889 93.1498 6.84839 94.1401 6.29089C95.4434 5.55739 97.9498 5.78089 99.1022 6.71889C99.526 7.06339 99.6196 7.56689 99.3401 8.00089C99.0768 8.40989 98.5498 8.56189 98.0546 8.32589C97.5817 8.10039 97.1254 7.84589 96.6044 7.73889C96.1817 7.65289 95.7654 7.64039 95.3513 7.79489C95.0318 7.91439 94.8429 8.14939 94.8232 8.46339C94.8034 8.77989 94.9741 9.03289 95.2758 9.18389C95.7847 9.43739 96.3406 9.55139 96.8814 9.70889C97.1908 9.79889 97.5062 9.87339 97.8075 9.98489C99.4196 10.5809 99.9999 11.4854 99.7781 13.0374C99.5953 14.3189 98.5062 15.2349 97.008 15.3589C96.767 15.3784 96.5229 15.3614 96.2804 15.3614Z" fill="black"/>
<path fill-rule="evenodd" clip-rule="evenodd" d="M9.37411 8.76872C8.65563 10.3087 7.72905 11.7382 6.93715 13.2392C6.66677 13.7507 6.3817 14.2547 6.10322 14.7617C6.09259 12.5472 6.08145 10.3322 6.07031 8.11772C7.11183 6.13922 8.20145 4.18672 9.34171 2.26172L9.37411 8.76872Z" fill="black"/>
<path fill-rule="evenodd" clip-rule="evenodd" d="M12.0654 10.7772C12.9945 9.11017 13.9216 7.44217 14.8543 5.77667C15.115 5.30967 15.3869 4.84917 15.5196 4.32617C15.5237 6.93267 15.5414 9.53917 15.5211 12.1452C15.5166 12.7122 15.4796 13.3092 14.9586 13.7242C14.4264 14.1472 13.8457 14.2842 13.2118 14.0087C12.6107 13.7477 12.2725 13.2992 12.2447 12.6212C12.2254 12.1657 12.1586 11.7147 12.2092 11.2557C12.2269 11.0942 12.2806 10.8862 12.0654 10.7772Z" fill="black"/>
<path fill-rule="evenodd" clip-rule="evenodd" d="M115.082 13.4616C114.63 13.4391 114.001 13.5871 113.715 13.3431C113.413 13.0856 113.671 12.4436 113.615 11.9746C113.562 11.5361 113.697 11.3706 114.168 11.4106C114.969 11.4791 115.78 11.3441 116.581 11.4876C117.112 11.5831 117.482 11.8386 117.506 12.4156C117.527 12.9311 117.204 13.2866 116.557 13.3836C116.082 13.4546 115.593 13.4381 115.082 13.4616Z" fill="white"/>
<path fill-rule="evenodd" clip-rule="evenodd" d="M114.954 7.8118C115.338 7.8118 115.726 7.7723 116.103 7.8218C116.612 7.8878 116.982 8.1808 116.988 8.7198C116.993 9.2218 116.68 9.5163 116.182 9.6208C115.401 9.7843 114.612 9.6648 113.827 9.6968C113.669 9.7033 113.623 9.6023 113.621 9.4678C113.62 9.3478 113.62 9.2283 113.62 9.1083C113.614 7.7803 113.614 7.7803 114.954 7.8118Z" fill="white"/>
<path fill-rule="evenodd" clip-rule="evenodd" d="M46.7222 5.78839C46.7212 5.35039 46.7359 4.91189 46.7167 4.47439C46.703 4.16339 46.7587 3.99639 47.1369 4.01339C47.8007 4.04339 48.467 3.98489 49.1298 4.07539C50.1263 4.21189 50.6544 4.81539 50.6534 5.82339C50.6529 6.98089 50.2554 7.46989 49.1379 7.57289C48.4579 7.63539 47.7688 7.59889 47.0848 7.62389C46.7749 7.63539 46.7136 7.48339 46.7197 7.22189C46.7314 6.74439 46.7233 6.26639 46.7222 5.78839Z" fill="white"/>
</svg>
