<svg width="130" height="38" viewBox="0 0 130 38" fill="none" xmlns="http://www.w3.org/2000/svg">
<rect width="130" height="38" fill="black" fill-opacity="0"/>
<path fill-rule="evenodd" clip-rule="evenodd" d="M2.02269 17.688C2.02269 14.0617 2.02269 13.4106 1.97624 12.6668C1.92979 11.8761 1.74369 11.5045 0.976357 11.3417C0.790557 11.2952 0.395128 11.272 0.186102 11.272C0.0929002 11.272 0 11.2256 0 11.1324C0 10.993 0.116125 10.9463 0.371903 10.9463C1.41824 10.9463 2.79002 11.0163 2.92937 11.0163C3.1387 11.0163 4.48726 10.9463 5.18462 10.9463C5.44039 10.9463 5.55652 10.993 5.55652 11.1324C5.55652 11.2256 5.46362 11.272 5.37072 11.272C5.20784 11.272 5.06849 11.2952 4.78919 11.3417C4.16151 11.4578 3.97571 11.8532 3.92896 12.6668C3.88281 13.4106 3.88281 14.0617 3.88281 17.688V19.0828H3.97571C4.37084 18.641 8.5791 14.3639 9.4161 13.4573C10.067 12.783 10.6715 12.1786 10.6715 11.7832C10.6715 11.5045 10.5553 11.3649 10.3692 11.2952C10.2531 11.2488 10.1599 11.202 10.1599 11.1091C10.1599 10.993 10.2763 10.9463 10.4389 10.9463C10.904 10.9463 11.6246 11.0163 12.1826 11.0163C12.299 11.0163 13.8334 10.9463 14.4146 10.9463C14.6704 10.9463 14.7633 10.993 14.7633 11.1091C14.7633 11.2256 14.7168 11.272 14.531 11.272C14.1821 11.272 13.6937 11.3881 13.2289 11.5974C12.2758 12.0157 11.7642 12.5969 10.7179 13.5966C10.1367 14.1546 6.0913 18.1066 5.60327 18.6874C6.20773 19.3618 11.0434 24.3597 11.9965 25.243C13.9495 27.0562 14.3449 27.4283 15.461 27.8931C16.0654 28.1488 16.7395 28.1956 16.9024 28.1956C17.065 28.1956 17.2043 28.2417 17.2043 28.3352C17.2043 28.451 17.0882 28.521 16.6931 28.521H15.5074C14.8565 28.521 14.4146 28.521 13.9031 28.4745C12.6709 28.3581 12.0897 27.8469 11.0901 27.0562C10.0438 26.1964 5.11494 20.8727 3.99893 19.5014H3.88281V21.7793C3.88281 24.011 3.88281 25.8474 3.99893 26.8237C4.06861 27.4977 4.20826 28.0095 4.90562 28.1024C5.23107 28.1488 5.60327 28.1956 5.8123 28.1956C5.95165 28.1956 5.9984 28.2652 5.9984 28.3352C5.9984 28.451 5.88197 28.521 5.6262 28.521C4.48726 28.521 3.1387 28.451 2.9526 28.451C2.7668 28.451 1.41824 28.521 0.720882 28.521C0.464803 28.521 0.348678 28.4745 0.348678 28.3352C0.348678 28.2652 0.395128 28.1956 0.53478 28.1956C0.744107 28.1956 1.02311 28.1488 1.23213 28.1024C1.69724 28.0095 1.81336 27.4977 1.90657 26.8237C2.02269 25.8474 2.02269 24.011 2.02269 21.7793V17.688Z" fill="#231F20"/>
<path fill-rule="evenodd" clip-rule="evenodd" d="M17.6457 17.6882C17.6457 14.0619 17.6457 13.4108 17.5993 12.6671C17.5528 11.8763 17.3667 11.5048 16.5994 11.3419C16.4136 11.2955 16.0182 11.2722 15.8091 11.2722C15.7159 11.2722 15.623 11.2258 15.623 11.1326C15.623 10.9933 15.7392 10.9465 15.9949 10.9465C16.5297 10.9465 17.1574 10.9465 17.669 10.9697L18.6221 11.0165C18.785 11.0165 25.126 11.0165 25.6608 10.9933C26.1027 10.9697 26.4746 10.9236 26.6607 10.8769C26.7768 10.8536 26.8697 10.7607 26.9861 10.7607C27.0558 10.7607 27.079 10.8536 27.079 10.9697C27.079 11.1326 26.9629 11.4116 26.8929 12.0627C26.8697 12.2952 26.8233 13.3179 26.7768 13.5969C26.7536 13.713 26.7071 13.8523 26.6139 13.8523C26.4746 13.8523 26.4281 13.7362 26.4281 13.5504C26.4281 13.3876 26.4049 12.7476 26.2885 12.4686C26.1259 12.0965 25.6484 12.0627 24.3931 11.9231C24.0043 11.8772 19.9939 11.8534 19.7381 11.8534C19.6452 11.8534 19.5988 11.9231 19.5988 12.0859V18.5019C19.5988 18.6647 19.622 18.7341 19.7381 18.7341C20.0403 18.7341 24.6145 18.7341 25.1492 18.6877C25.7072 18.6412 26.033 18.5948 26.242 18.3623C26.4049 18.1765 26.4978 18.0601 26.5907 18.0601C26.6607 18.0601 26.7071 18.1068 26.7071 18.2461C26.7071 18.3858 26.5907 18.7809 26.521 19.5478C26.4746 20.0128 26.4281 20.873 26.4281 21.0358C26.4281 21.2219 26.4281 21.4773 26.2653 21.4773C26.1488 21.4773 26.1027 21.3845 26.1027 21.268C26.1027 21.0358 26.1027 20.803 26.0095 20.5011C25.9166 20.1757 25.4623 19.7803 24.5556 19.6874C23.928 19.6175 20.1568 19.5713 19.7613 19.5713C19.6452 19.5713 19.5988 19.641 19.5988 19.7342V21.7795C19.5988 22.57 19.5755 25.2665 19.5988 25.7548C19.6684 27.3586 20.0171 27.6608 22.2959 27.6608C22.9 27.6608 25.6376 27.6608 26.242 27.4053C26.8465 27.1496 27.1255 26.6846 27.2884 25.7315C27.3348 25.4758 27.3813 25.3829 27.4974 25.3829C27.637 25.3829 27.637 25.5687 27.637 25.7315C27.637 25.9173 27.4509 27.4979 27.3348 27.9862C27.1719 28.5909 26.9861 28.5909 26.0791 28.5909C24.3355 28.5909 21.3424 28.5441 20.4358 28.5212C19.5291 28.4748 18.9711 28.4513 18.6221 28.4513C18.5756 28.4513 18.1805 28.4513 17.6922 28.4748C17.2274 28.4748 16.6926 28.5212 16.3439 28.5212C16.0878 28.5212 15.9717 28.4748 15.9717 28.3354C15.9717 28.2655 16.0182 28.1958 16.1578 28.1958C16.3672 28.1958 16.6462 28.1491 16.8552 28.1026C17.3203 28.0097 17.4364 27.4979 17.5296 26.8239C17.6457 25.8476 17.6457 24.0113 17.6457 21.7795V17.6882Z" fill="#231F20"/>
<path fill-rule="evenodd" clip-rule="evenodd" d="M117.968 17.6882C117.968 14.0619 117.968 13.4108 117.922 12.6671C117.875 11.8763 117.689 11.5048 116.922 11.3419C116.736 11.2955 116.34 11.2722 116.131 11.2722C116.038 11.2722 115.945 11.2258 115.945 11.1326C115.945 10.9933 116.061 10.9465 116.317 10.9465C116.852 10.9465 117.48 10.9465 117.991 10.9697L118.944 11.0165C119.107 11.0165 125.448 11.0165 125.983 10.9933C126.425 10.9697 126.797 10.9236 126.983 10.8769C127.099 10.8536 127.192 10.7607 127.308 10.7607C127.378 10.7607 127.401 10.8536 127.401 10.9697C127.401 11.1326 127.285 11.4116 127.215 12.0627C127.192 12.2952 127.146 13.3179 127.099 13.5969C127.076 13.713 127.029 13.8523 126.936 13.8523C126.797 13.8523 126.75 13.7362 126.75 13.5504C126.75 13.3876 126.727 12.9925 126.611 12.7135C126.448 12.3414 125.97 12.0627 124.715 11.9231C124.32 11.8763 120.316 11.8534 120.06 11.8534C119.967 11.8534 119.921 11.9231 119.921 12.0859V18.5019C119.921 18.6647 119.944 18.7341 120.06 18.7341C120.363 18.7341 124.937 18.7341 125.471 18.6877C126.029 18.6412 126.355 18.5948 126.564 18.3623C126.727 18.1765 126.82 18.0601 126.913 18.0601C126.983 18.0601 127.029 18.1068 127.029 18.2461C127.029 18.3858 126.913 18.7809 126.843 19.5478C126.797 20.0128 126.75 20.873 126.75 21.0358C126.75 21.2219 126.75 21.4773 126.588 21.4773C126.471 21.4773 126.425 21.3845 126.425 21.268C126.425 21.0358 126.425 20.803 126.332 20.5011C126.239 20.1757 125.785 19.7803 124.878 19.6874C124.25 19.6175 120.479 19.5713 120.084 19.5713C119.967 19.5713 119.921 19.641 119.921 19.7342V21.7795C119.921 22.57 119.897 25.2665 119.921 25.7548C119.991 27.3586 120.339 27.6608 122.618 27.6608C123.222 27.6608 125.96 27.6608 126.564 27.4053C127.169 27.1496 127.448 26.6846 127.611 25.7315C127.657 25.4758 127.703 25.3829 127.82 25.3829C127.959 25.3829 127.959 25.5687 127.959 25.7315C127.959 25.9173 127.773 27.4979 127.657 27.9862C127.494 28.5909 127.308 28.5909 126.401 28.5909C124.658 28.5909 121.665 28.5441 120.758 28.5212C119.851 28.4748 119.293 28.4513 118.944 28.4513C118.898 28.4513 118.502 28.4513 118.014 28.4748C117.549 28.4748 117.015 28.5212 116.666 28.5212C116.41 28.5212 116.294 28.4748 116.294 28.3354C116.294 28.2655 116.34 28.1958 116.48 28.1958C116.689 28.1958 116.968 28.1491 117.177 28.1026C117.643 28.0097 117.759 27.4979 117.852 26.8239C117.968 25.8476 117.968 24.0113 117.968 21.7795V17.6882Z" fill="#231F20"/>
<path fill-rule="evenodd" clip-rule="evenodd" d="M30.6418 25.3594C30.6882 27.2657 30.9208 27.8701 31.5484 28.0559C31.9903 28.1723 32.5019 28.1955 32.7109 28.1955C32.8273 28.1955 32.897 28.2419 32.897 28.3351C32.897 28.4745 32.7576 28.5209 32.4786 28.5209C31.1533 28.5209 30.2234 28.4512 30.0141 28.4512C29.8051 28.4512 28.8284 28.5209 27.7824 28.5209C27.5498 28.5209 27.4102 28.4977 27.4102 28.3351C27.4102 28.2419 27.4801 28.1955 27.5963 28.1955C27.7824 28.1955 28.2007 28.1723 28.5494 28.0559C29.1306 27.893 29.2467 27.219 29.2467 25.1036L29.2703 11.7834C29.2703 10.8768 29.3399 10.6211 29.5257 10.6211C29.7118 10.6211 30.1073 11.1323 30.3398 11.3648C30.6882 11.7602 34.1527 15.5029 37.7329 19.3388C40.0346 21.8027 42.5689 24.6386 43.3127 25.4058L43.0572 13.5966C43.0337 12.0856 42.8711 11.5744 42.1502 11.3883C41.7319 11.2951 41.1971 11.2719 41.011 11.2719C40.8484 11.2719 40.8252 11.2023 40.8252 11.1094C40.8252 10.9697 41.011 10.9465 41.29 10.9465C42.3363 10.9465 43.4523 11.0162 43.7081 11.0162C43.9636 11.0162 44.7309 10.9465 45.6843 10.9465C45.9398 10.9465 46.1027 10.9697 46.1027 11.1094C46.1027 11.2023 46.0098 11.2719 45.8469 11.2719C45.7305 11.2719 45.5679 11.2719 45.2889 11.3419C44.5219 11.5044 44.4287 12.0159 44.4287 13.4108L44.3822 27.0332C44.3822 28.5674 44.3358 28.6835 44.1729 28.6835C43.9871 28.6835 43.7078 28.428 42.4757 27.196C42.2199 26.9632 38.8722 23.5462 36.4076 20.8962C33.7108 17.9901 31.0836 15.0614 30.3398 14.2245L30.6418 25.3594Z" fill="#231F20"/>
<path fill-rule="evenodd" clip-rule="evenodd" d="M54.3792 21.7795C54.3792 24.011 54.3792 25.8473 54.4954 26.8239C54.565 27.4979 54.7047 28.0094 55.4023 28.1026C55.7278 28.1487 56.2393 28.1955 56.4484 28.1955C56.5877 28.1955 56.6345 28.2655 56.6345 28.3351C56.6345 28.4512 56.518 28.5212 56.2626 28.5212C54.9837 28.5212 53.519 28.4512 53.4026 28.4512C53.2864 28.4512 51.8218 28.5212 51.1241 28.5212C50.8686 28.5212 50.7522 28.4745 50.7522 28.3351C50.7522 28.2655 50.7987 28.1955 50.9383 28.1955C51.1476 28.1955 51.4263 28.1487 51.636 28.1026C52.1008 28.0094 52.2172 27.4979 52.3101 26.8239C52.4262 25.8473 52.4262 24.011 52.4262 21.7795V11.9463L48.9853 11.9927C47.5438 12.0159 46.9858 12.1788 46.6139 12.7367C46.3581 13.1318 46.2885 13.2947 46.2185 13.4572C46.1488 13.643 46.0791 13.6894 45.9862 13.6894C45.9163 13.6894 45.8701 13.6201 45.8701 13.4804C45.8701 13.2479 46.3349 11.249 46.3814 11.0629C46.4281 10.9233 46.521 10.6211 46.6139 10.6211C46.7765 10.6211 47.009 10.8536 47.6367 10.9001C48.3112 10.9697 49.1946 11.0165 49.4736 11.0165H58.1921C58.9359 11.0165 59.4706 10.9697 59.8428 10.9001C60.1915 10.8536 60.4009 10.784 60.4938 10.784C60.6102 10.784 60.6102 10.9233 60.6102 11.0629C60.6102 11.7602 60.5402 13.364 60.5402 13.6201C60.5402 13.8291 60.4705 13.922 60.3776 13.922C60.2612 13.922 60.2148 13.8523 60.1915 13.5269L60.1683 13.2711C60.0983 12.5739 59.5406 12.0392 57.3086 11.9927L54.3792 11.9463V21.7795Z" fill="#231F20"/>
<path fill-rule="evenodd" clip-rule="evenodd" d="M66.8002 28.2016C66.4168 28.0342 66.3896 27.9389 66.3896 27.2938C66.3896 26.1002 66.4991 25.145 66.5266 24.7632C66.5537 24.5008 66.6086 24.3811 66.7453 24.3811C66.9096 24.3811 66.9371 24.4526 66.9371 24.6435C66.9371 24.8588 66.9371 25.193 67.0194 25.5274C67.43 27.2938 69.237 27.9628 71.0715 27.9628C73.6998 27.9628 74.9869 26.3152 74.9869 24.787C74.9869 23.1395 74.1927 21.9392 71.8382 20.2439L70.6061 19.3606C67.7038 17.2832 67.0463 16.0476 67.0463 14.4239C67.0463 11.8692 69.237 10.126 72.7141 10.126C73.7819 10.126 74.576 10.2216 75.2604 10.3648C75.7804 10.4601 75.718 10.395 75.9373 10.395C76.1562 10.395 76.2108 10.4426 76.2108 10.5621C76.2108 10.6815 76.4802 11.6203 76.7456 13.1823C76.8096 13.5592 76.691 13.7318 76.5538 13.7318C76.3897 13.7318 76.3623 13.6123 76.3348 13.4211C76.3077 13.1349 75.7804 12.3951 75.6163 12.1324C75.4523 11.8701 74.7127 10.9617 72.1938 10.9617C70.3047 10.9617 68.8265 11.9886 68.8265 13.7318C68.8265 15.0928 69.538 15.7075 72.1667 17.4983L72.9334 18.0233C76.1641 20.2439 76.9305 21.9696 76.9305 23.8796C76.9305 24.8588 76.4926 26.6735 74.6032 27.8436C73.4262 28.5596 71.9474 28.8464 70.4691 28.8464C69.1821 28.8464 67.9228 28.679 66.8002 28.2016Z" fill="#231F20"/>
<path fill-rule="evenodd" clip-rule="evenodd" d="M84.6314 21.7795C84.6314 24.011 84.6314 25.8473 84.7458 26.8239C84.8142 27.4979 84.9518 28.0094 85.6374 28.1026C85.9574 28.1487 86.4602 28.1955 86.6662 28.1955C86.8031 28.1955 86.8493 28.2655 86.8493 28.3351C86.8493 28.4512 86.735 28.5212 86.4834 28.5212C85.2259 28.5212 83.7854 28.4512 83.6711 28.4512C83.5567 28.4512 82.1165 28.5212 81.4306 28.5212C81.179 28.5212 81.0647 28.4745 81.0647 28.3351C81.0647 28.2655 81.1103 28.1955 81.2475 28.1955C81.4535 28.1955 81.7277 28.1487 81.9337 28.1026C82.3907 28.0094 82.505 27.4979 82.5967 26.8239C82.711 25.8473 82.711 24.011 82.711 21.7795V11.9463L79.3271 11.9927C77.9097 12.0159 77.4938 12.1788 77.1282 12.7367C76.8767 13.1318 76.8082 13.2947 76.7394 13.4572C76.6707 13.643 76.6022 13.6894 76.5108 13.6894C76.4423 13.6894 76.3965 13.6201 76.3965 13.4804C76.3965 13.2479 76.8537 11.249 76.8993 11.0629C76.9454 10.9233 77.0365 10.6211 77.1282 10.6211C77.2881 10.6211 77.517 10.8536 78.1341 10.9001C78.7971 10.9697 79.5331 11.0165 79.8073 11.0165H88.3809C89.1124 11.0165 89.6384 10.9697 90.004 10.9001C90.3472 10.8536 90.5529 10.784 90.6446 10.784C90.7586 10.784 90.7586 10.9233 90.7586 11.0629C90.7586 11.7602 90.6902 13.364 90.6902 13.6201C90.6902 13.8291 90.6214 13.922 90.53 13.922C90.416 13.922 90.3698 13.8523 90.3472 13.5269L90.3243 13.2711C90.2555 12.5739 89.7069 12.0392 87.5123 11.9927L84.6314 11.9463V21.7795Z" fill="#231F20"/>
<path fill-rule="evenodd" clip-rule="evenodd" d="M97.8617 20.8265C97.9953 20.8265 97.9953 20.7568 97.9684 20.6636L95.427 14.387C95.293 14.0383 95.1591 14.0383 95.0258 14.387L92.671 20.6636C92.6173 20.78 92.671 20.8265 92.7516 20.8265H97.8617ZM95.0789 11.5277C95.4001 10.7607 95.5072 10.6211 95.668 10.6211C95.8281 10.6211 95.9349 10.7375 96.2564 11.458C96.6576 12.3413 100.858 21.9421 102.49 25.4758C103.453 27.5447 104.229 27.9168 104.791 28.0562C105.193 28.1723 105.594 28.1958 105.861 28.1958C106.022 28.1958 106.129 28.2187 106.129 28.3351C106.129 28.4745 105.888 28.5212 105.594 28.5212C105.193 28.5212 103.239 28.5212 101.393 28.4745C100.885 28.4512 100.59 28.4512 100.59 28.3116C100.59 28.2187 100.671 28.1723 100.778 28.1487C100.939 28.1026 101.099 27.8933 100.939 27.5214L98.4501 21.8027C98.3964 21.7099 98.3434 21.6631 98.2091 21.6631H92.4572C92.3233 21.6631 92.243 21.7331 92.1893 21.8492L90.5841 25.9637C90.3434 26.5452 90.2095 27.1031 90.2095 27.5214C90.2095 27.9862 90.7714 28.1958 91.2262 28.1958H91.4941C91.6814 28.1958 91.761 28.2419 91.761 28.3351C91.761 28.4745 91.6009 28.5212 91.3599 28.5212C90.7177 28.5212 89.5673 28.4512 89.2729 28.4512C88.9788 28.4512 87.5075 28.5212 86.2501 28.5212C85.9023 28.5212 85.7412 28.4745 85.7412 28.3351C85.7412 28.2419 85.8486 28.1958 85.9822 28.1958C86.1695 28.1958 86.5444 28.1723 86.758 28.1487C87.9892 28.0094 88.524 27.1264 89.0057 25.9637L95.0789 11.5277Z" fill="#231F20"/>
<path fill-rule="evenodd" clip-rule="evenodd" d="M109.267 21.7795C109.267 24.011 109.267 25.8473 109.383 26.8239C109.453 27.4979 109.592 28.0094 110.29 28.1026C110.616 28.1487 111.127 28.1955 111.336 28.1955C111.476 28.1955 111.522 28.2655 111.522 28.3351C111.522 28.4512 111.406 28.5212 111.15 28.5212C109.872 28.5212 108.407 28.4512 108.291 28.4512C108.174 28.4512 106.709 28.5212 106.012 28.5212C105.756 28.5212 105.64 28.4745 105.64 28.3351C105.64 28.2655 105.687 28.1955 105.826 28.1955C106.035 28.1955 106.315 28.1487 106.524 28.1026C106.988 28.0094 107.105 27.4979 107.198 26.8239C107.314 25.8473 107.314 24.011 107.314 21.7795V11.9463L103.873 11.9927C102.432 12.0159 101.874 12.1788 101.502 12.7367C101.246 13.1318 101.176 13.2947 101.106 13.4572C101.037 13.643 100.967 13.6894 100.874 13.6894C100.804 13.6894 100.758 13.6201 100.758 13.4804C100.758 13.2479 101.223 11.249 101.269 11.0629C101.316 10.9233 101.409 10.6211 101.502 10.6211C101.664 10.6211 101.897 10.8536 102.525 10.9001C103.199 10.9697 104.083 11.0165 104.361 11.0165H113.08C113.824 11.0165 114.359 10.9697 114.731 10.9001C115.08 10.8536 115.289 10.784 115.381 10.784C115.498 10.784 115.498 10.9233 115.498 11.0629C115.498 11.7602 115.428 13.364 115.428 13.6201C115.428 13.8291 115.358 13.922 115.266 13.922C115.149 13.922 115.103 13.8523 115.08 13.5269L115.056 13.2711C114.986 12.5739 114.428 12.0392 112.197 11.9927L109.267 11.9463V21.7795Z" fill="#231F20"/>
<rect width="5.59875" height="5.74701" fill="black" fill-opacity="0" transform="translate(9.53027 32.1201)"/>
<mask id="mask0" mask-type="alpha" maskUnits="userSpaceOnUse" x="9" y="32" width="7" height="6">
<path fill-rule="evenodd" clip-rule="evenodd" d="M9.53027 32.1201H15.129V37.8671H9.53027V32.1201Z" fill="white"/>
</mask>
<g mask="url(#mask0)">
<path fill-rule="evenodd" clip-rule="evenodd" d="M10.1797 34.2843C10.1797 33.1202 10.1797 32.9109 10.1649 32.6723C10.1498 32.4184 10.0904 32.299 9.84396 32.2468C9.78394 32.2317 9.65726 32.2245 9.58999 32.2245C9.56013 32.2245 9.53027 32.2094 9.53027 32.1795C9.53027 32.1349 9.56767 32.1201 9.64972 32.1201C9.98573 32.1201 10.4412 32.1421 10.5081 32.1421C10.5754 32.1421 11.0233 32.1201 11.2471 32.1201C11.3295 32.1201 11.3669 32.1349 11.3669 32.1795C11.3669 32.2094 11.3367 32.2245 11.3068 32.2245C11.2547 32.2245 11.21 32.2317 11.1204 32.2468C10.919 32.2766 10.8589 32.4111 10.8441 32.6723C10.8291 32.9109 10.8291 33.1202 10.8291 34.2843V35.3293C10.8291 36.4042 11.068 36.8671 11.3889 37.1729C11.7548 37.5164 12.0908 37.5834 12.5164 37.5834C12.9715 37.5834 13.4194 37.3671 13.6882 37.0459C14.0317 36.6207 14.121 35.9865 14.121 35.2177V34.2843C14.121 33.1202 14.121 32.9109 14.1062 32.6723C14.0911 32.4184 14.0317 32.299 13.7853 32.2468C13.7256 32.2317 13.5986 32.2245 13.5313 32.2245C13.5015 32.2245 13.4719 32.2094 13.4719 32.1795C13.4719 32.1349 13.509 32.1201 13.591 32.1201C13.927 32.1201 14.3376 32.1421 14.3825 32.1421C14.4344 32.1421 14.7855 32.1201 15.0096 32.1201C15.0916 32.1201 15.129 32.1349 15.129 32.1795C15.129 32.2094 15.0992 32.2245 15.069 32.2245C15.0168 32.2245 14.9722 32.2317 14.8826 32.2468C14.6811 32.2917 14.6214 32.4111 14.6063 32.6723C14.5912 32.9109 14.5912 33.1202 14.5912 34.2843V35.0832C14.5912 35.8891 14.5019 36.7848 13.9047 37.315C13.3672 37.7927 12.8071 37.8672 12.3667 37.8672C12.1131 37.8672 11.359 37.8373 10.8291 37.337C10.4632 36.9862 10.1797 36.4642 10.1797 35.3742V34.2843Z" fill="#231F20"/>
</g>
<path fill-rule="evenodd" clip-rule="evenodd" d="M23.6225 36.7473C23.6376 37.3593 23.7121 37.5535 23.9136 37.6129C24.0557 37.6503 24.2198 37.6578 24.287 37.6578C24.3244 37.6578 24.3467 37.6726 24.3467 37.7028C24.3467 37.7471 24.3018 37.7622 24.2122 37.7622C23.7866 37.7622 23.4883 37.7399 23.4211 37.7399C23.3538 37.7399 23.0404 37.7622 22.7044 37.7622C22.6296 37.7622 22.585 37.7549 22.585 37.7028C22.585 37.6726 22.6073 37.6578 22.6447 37.6578C22.7044 37.6578 22.8389 37.6503 22.9508 37.6129C23.1375 37.5607 23.1746 37.3442 23.1746 36.6653L23.1822 32.3885C23.1822 32.0972 23.2045 32.0151 23.2645 32.0151C23.3239 32.0151 23.4509 32.1795 23.5257 32.2543C23.6376 32.381 24.7497 33.5825 25.8992 34.8142C26.6385 35.6052 27.452 36.5157 27.6909 36.7621L27.6088 32.9706C27.6013 32.4853 27.5491 32.3212 27.3174 32.2615C27.1832 32.2314 27.0116 32.2241 26.9519 32.2241C26.8997 32.2241 26.8922 32.2018 26.8922 32.172C26.8922 32.1273 26.9519 32.1198 27.0415 32.1198C27.3775 32.1198 27.7355 32.1418 27.8178 32.1418C27.8999 32.1418 28.1463 32.1198 28.4522 32.1198C28.5345 32.1198 28.5867 32.1273 28.5867 32.172C28.5867 32.2018 28.5568 32.2241 28.5046 32.2241C28.4672 32.2241 28.4151 32.2241 28.3255 32.2465C28.079 32.2986 28.0492 32.463 28.0492 32.9105L28.0341 37.2848C28.0341 37.7773 28.0193 37.8144 27.9671 37.8144C27.9074 37.8144 27.8178 37.7326 27.4221 37.3366C27.3401 37.2621 26.2651 36.165 25.4739 35.3142C24.608 34.3811 23.7643 33.4407 23.5257 33.1723L23.6225 36.7473Z" fill="#231F20"/>
<path fill-rule="evenodd" clip-rule="evenodd" d="M37.7152 35.598C37.7152 36.3146 37.7152 36.9042 37.7526 37.2178C37.7749 37.4341 37.8196 37.5985 38.0437 37.628C38.1483 37.6431 38.3121 37.6579 38.3797 37.6579C38.4243 37.6579 38.4391 37.6802 38.4391 37.7028C38.4391 37.7402 38.402 37.7625 38.32 37.7625C37.9095 37.7625 37.4389 37.7402 37.4015 37.7402C37.3644 37.7402 36.8939 37.7625 36.6701 37.7625C36.588 37.7625 36.5506 37.7474 36.5506 37.7028C36.5506 37.6802 36.5657 37.6579 36.6104 37.6579C36.6776 37.6579 36.7672 37.6431 36.8345 37.628C36.9838 37.5985 37.0209 37.4341 37.0507 37.2178C37.0881 36.9042 37.0881 36.3146 37.0881 35.598V34.2843C37.0881 33.1199 37.0881 32.9109 37.0734 32.6723C37.0583 32.4184 36.9838 32.2914 36.8194 32.2543C36.7373 32.2317 36.6402 32.2242 36.588 32.2242C36.5582 32.2242 36.5283 32.2094 36.5283 32.1795C36.5283 32.1349 36.5657 32.1201 36.6478 32.1201C36.8939 32.1201 37.3644 32.1421 37.4015 32.1421C37.4389 32.1421 37.9095 32.1201 38.1333 32.1201C38.2153 32.1201 38.2527 32.1349 38.2527 32.1795C38.2527 32.2094 38.2228 32.2242 38.193 32.2242C38.1408 32.2242 38.0959 32.2317 38.0063 32.2468C37.8048 32.2842 37.7451 32.4111 37.7303 32.6723C37.7152 32.9109 37.7152 33.1199 37.7152 34.2843V35.598Z" fill="#231F20"/>
<path fill-rule="evenodd" clip-rule="evenodd" d="M48.628 36.8517C49.0608 35.852 50.061 33.2468 50.2254 32.7094C50.2628 32.5978 50.2926 32.4929 50.2926 32.4256C50.2926 32.3659 50.27 32.2914 50.1955 32.2543C50.1059 32.2242 49.994 32.2242 49.912 32.2242C49.867 32.2242 49.8296 32.2169 49.8296 32.1795C49.8296 32.1346 49.8746 32.1201 49.994 32.1201C50.2926 32.1201 50.6359 32.1421 50.7255 32.1421C50.7704 32.1421 51.0913 32.1201 51.3076 32.1201C51.3899 32.1201 51.4346 32.1346 51.4346 32.172C51.4346 32.2091 51.405 32.2242 51.345 32.2242C51.2928 32.2242 51.1287 32.2242 50.9867 32.314C50.8899 32.3813 50.7777 32.508 50.5762 33.0155C50.4941 33.2245 50.121 34.1199 49.7404 35.038C49.2849 36.1279 48.9489 36.9341 48.7773 37.2996C48.5683 37.7474 48.5384 37.8669 48.4639 37.8669C48.374 37.8669 48.3369 37.7625 48.1948 37.4039L46.3661 32.8288C46.202 32.4108 46.0898 32.3288 45.8286 32.2543C45.7167 32.2242 45.5897 32.2242 45.5451 32.2242C45.5001 32.2242 45.4854 32.2018 45.4854 32.172C45.4854 32.1274 45.5599 32.1201 45.6793 32.1201C46.0376 32.1201 46.4632 32.1421 46.5528 32.1421C46.6276 32.1421 46.9633 32.1201 47.2468 32.1201C47.3814 32.1201 47.4483 32.1346 47.4483 32.172C47.4483 32.2091 47.4263 32.2242 47.3738 32.2242C47.2918 32.2242 47.1576 32.2317 47.0903 32.2616C47.008 32.2987 46.9932 32.3587 46.9932 32.4108C46.9932 32.508 47.0828 32.7393 47.1947 33.0303L48.628 36.8517Z" fill="#231F20"/>
<path fill-rule="evenodd" clip-rule="evenodd" d="M59.1445 34.284C59.1445 33.1198 59.1445 32.9105 59.1294 32.672C59.1147 32.418 59.0549 32.2986 58.8085 32.2464C58.7488 32.2314 58.6221 32.2241 58.5548 32.2241C58.525 32.2241 58.4951 32.209 58.4951 32.1792C58.4951 32.1346 58.5325 32.1198 58.6146 32.1198C58.7862 32.1198 58.9877 32.1198 59.1521 32.1273L59.4582 32.1418C59.5101 32.1418 60.9959 32.1418 61.1675 32.1346C61.3093 32.1273 61.4287 32.1122 61.4884 32.0972C61.5258 32.0899 61.5557 32.0601 61.5931 32.0601C61.6154 32.0601 61.6227 32.0899 61.6227 32.1273C61.6227 32.1792 61.5856 32.2688 61.5632 32.4781C61.5557 32.5526 61.5406 32.881 61.5258 32.9706C61.5183 33.0079 61.5035 33.0526 61.4737 33.0526C61.4287 33.0526 61.4136 33.0155 61.4136 32.9558C61.4136 32.9033 61.4064 32.7763 61.369 32.6868C61.3168 32.5676 61.242 32.4781 60.839 32.4328C60.7121 32.418 59.8986 32.4108 59.8165 32.4108C59.7864 32.4108 59.7716 32.4328 59.7716 32.4853V34.5454C59.7716 34.5976 59.7791 34.6199 59.8165 34.6199C59.9134 34.6199 60.8315 34.6199 61.0031 34.6052C61.1823 34.5904 61.2869 34.5753 61.3542 34.5005C61.4064 34.4411 61.4363 34.4034 61.4661 34.4034C61.4884 34.4034 61.5035 34.4185 61.5035 34.4634C61.5035 34.508 61.4661 34.635 61.4438 34.8811C61.4287 35.0307 61.4136 35.3069 61.4136 35.3588C61.4136 35.4188 61.4136 35.5009 61.3617 35.5009C61.3243 35.5009 61.3093 35.471 61.3093 35.4339C61.3093 35.3588 61.3093 35.2843 61.2794 35.1872C61.2495 35.0829 61.1823 34.9562 60.8912 34.926C60.6897 34.9037 59.9508 34.8886 59.8238 34.8886C59.7864 34.8886 59.7716 34.911 59.7716 34.9411V35.5977C59.7716 35.8516 59.764 36.7172 59.7716 36.8743C59.7939 37.3891 59.9058 37.4862 60.6376 37.4862C60.8315 37.4862 61.16 37.4862 61.3542 37.4039C61.5482 37.3219 61.6377 37.1726 61.6899 36.8668C61.705 36.7844 61.7198 36.7546 61.7572 36.7546C61.8021 36.7546 61.8021 36.8146 61.8021 36.8668C61.8021 36.9262 61.7424 37.4337 61.705 37.5906C61.6525 37.7845 61.5931 37.7845 61.3017 37.7845C60.7419 37.7845 60.3314 37.77 60.0403 37.7622C59.749 37.7471 59.5701 37.7399 59.4582 37.7399C59.4431 37.7399 59.3161 37.7399 59.1593 37.7471C59.0103 37.7471 58.8384 37.7622 58.7265 37.7622C58.6444 37.7622 58.607 37.7471 58.607 37.7028C58.607 37.6801 58.6221 37.6578 58.6667 37.6578C58.734 37.6578 58.8236 37.643 58.8908 37.628C59.0402 37.5981 59.0773 37.4337 59.1071 37.2178C59.1445 36.9042 59.1445 36.3142 59.1445 35.5977V34.284Z" fill="#231F20"/>
<path fill-rule="evenodd" clip-rule="evenodd" d="M70.9229 34.9341C70.9229 34.9712 70.9376 35.0014 70.9747 35.0237C71.0866 35.091 71.4305 35.1428 71.7587 35.1428C71.9378 35.1428 72.1468 35.1205 72.3185 35.0014C72.58 34.8219 72.7739 34.419 72.7739 33.8517C72.7739 32.9186 72.2811 32.3589 71.4824 32.3589C71.2583 32.3589 71.0568 32.3815 70.9823 32.4035C70.9449 32.4186 70.9229 32.4488 70.9229 32.4931V34.9341ZM70.3252 34.2843C70.3252 33.1199 70.3252 32.9109 70.3104 32.6723C70.2953 32.4184 70.2359 32.299 69.9892 32.2468C69.9297 32.2317 69.8025 32.2245 69.7352 32.2245C69.7056 32.2245 69.6758 32.2094 69.6758 32.1795C69.6758 32.1349 69.7132 32.1201 69.7952 32.1201C70.1309 32.1201 70.6015 32.1421 70.6389 32.1421C70.7209 32.1421 71.2883 32.1201 71.5196 32.1201C71.9898 32.1201 72.4896 32.1645 72.8857 32.4485C73.0724 32.5828 73.4008 32.9486 73.4008 33.4634C73.4008 34.0156 73.1692 34.5678 72.4975 35.1876C73.1095 35.9711 73.6174 36.6355 74.0499 37.0984C74.4535 37.5237 74.7741 37.6057 74.9608 37.6358C75.1026 37.6579 75.2073 37.6579 75.2519 37.6579C75.2896 37.6579 75.3192 37.6802 75.3192 37.7031C75.3192 37.7474 75.2745 37.7625 75.14 37.7625H74.6101C74.192 37.7625 74.0056 37.7254 73.811 37.6205C73.4904 37.4492 73.2289 37.0833 72.8033 36.5236C72.4896 36.1131 72.1388 35.6128 71.9898 35.4189C71.96 35.389 71.9377 35.3742 71.893 35.3742L70.9746 35.3592C70.9375 35.3592 70.9227 35.3815 70.9227 35.4189V35.598C70.9227 36.3146 70.9227 36.9042 70.9598 37.2178C70.9821 37.4341 71.0271 37.5984 71.2509 37.6283C71.3555 37.6431 71.5196 37.6579 71.5869 37.6579C71.6315 37.6579 71.6463 37.6802 71.6463 37.7031C71.6463 37.7402 71.6092 37.7625 71.5272 37.7625C71.1166 37.7625 70.6464 37.7402 70.609 37.7402C70.6015 37.7402 70.1309 37.7625 69.9074 37.7625C69.8251 37.7625 69.7877 37.7474 69.7877 37.7031C69.7877 37.6802 69.8025 37.6579 69.8477 37.6579C69.9147 37.6579 70.0042 37.6431 70.0715 37.6283C70.2208 37.5984 70.2582 37.4341 70.2881 37.2178C70.3252 36.9042 70.3252 36.3146 70.3252 35.598V34.2843Z" fill="#231F20"/>
<path fill-rule="evenodd" clip-rule="evenodd" d="M82.0819 37.6654C81.9773 37.6129 81.9697 37.5833 81.9697 37.3819C81.9697 37.0085 81.9999 36.7099 82.0071 36.5908C82.0147 36.5082 82.0294 36.4711 82.0668 36.4711C82.1118 36.4711 82.119 36.4934 82.119 36.5531C82.119 36.6204 82.119 36.725 82.1417 36.8294C82.2536 37.3819 82.7461 37.5906 83.2462 37.5906C83.9629 37.5906 84.3137 37.0758 84.3137 36.5981C84.3137 36.0829 84.0974 35.7847 83.4555 35.2545L83.1192 34.9782C82.3281 34.3289 82.1492 33.866 82.1492 33.3587C82.1492 32.5598 82.7461 32.0151 83.6941 32.0151C83.9855 32.0151 84.2018 32.045 84.3882 32.0899C84.5302 32.1198 84.5896 32.1273 84.6497 32.1273C84.7094 32.1273 84.7245 32.1421 84.7245 32.1795C84.7245 32.2169 84.6946 32.463 84.6946 32.9706C84.6946 33.09 84.6795 33.1425 84.6421 33.1425C84.5975 33.1425 84.5896 33.1048 84.5824 33.0454C84.5752 32.9558 84.5302 32.754 84.4856 32.672C84.4406 32.59 84.2389 32.2763 83.5524 32.2763C83.0375 32.2763 82.6342 32.5975 82.6342 33.1425C82.6342 33.5677 82.8285 33.8364 83.5451 34.3962L83.7538 34.5602C84.6349 35.2545 84.8436 35.7171 84.8436 36.3146C84.8436 36.6204 84.7245 37.1877 84.2096 37.5535C83.8881 37.7773 83.4851 37.8668 83.0818 37.8668C82.731 37.8668 82.3878 37.8144 82.0819 37.6654Z" fill="#231F20"/>
<path fill-rule="evenodd" clip-rule="evenodd" d="M94.0687 35.598C94.0687 36.3146 94.0687 36.9042 94.1064 37.2178C94.1284 37.4341 94.1737 37.5985 94.3975 37.628C94.5022 37.6431 94.6659 37.6579 94.7332 37.6579C94.7781 37.6579 94.7929 37.6802 94.7929 37.7028C94.7929 37.7402 94.7555 37.7625 94.6735 37.7625C94.263 37.7625 93.7927 37.7402 93.7556 37.7402C93.7179 37.7402 93.2477 37.7625 93.0239 37.7625C92.9419 37.7625 92.9045 37.7474 92.9045 37.7028C92.9045 37.6802 92.9192 37.6579 92.9642 37.6579C93.0314 37.6579 93.1207 37.6431 93.188 37.628C93.3373 37.5985 93.3747 37.4341 93.4048 37.2178C93.4419 36.9042 93.4419 36.3146 93.4419 35.598V34.2843C93.4419 33.1199 93.4419 32.9109 93.4269 32.6723C93.4121 32.4184 93.3373 32.2914 93.1729 32.2543C93.0912 32.2317 92.994 32.2242 92.9419 32.2242C92.912 32.2242 92.8818 32.2094 92.8818 32.1795C92.8818 32.1349 92.9192 32.1201 93.0016 32.1201C93.2477 32.1201 93.7179 32.1421 93.7556 32.1421C93.7927 32.1421 94.263 32.1201 94.4871 32.1201C94.5691 32.1201 94.6062 32.1349 94.6062 32.1795C94.6062 32.2094 94.5767 32.2242 94.5465 32.2242C94.4943 32.2242 94.4497 32.2317 94.3601 32.2468C94.1586 32.2842 94.0989 32.4111 94.0838 32.6723C94.0687 32.9109 94.0687 33.1199 94.0687 34.2843V35.598Z" fill="#231F20"/>
<path fill-rule="evenodd" clip-rule="evenodd" d="M104.929 35.598C104.929 36.3146 104.929 36.9042 104.967 37.2178C104.989 37.4341 105.034 37.5984 105.258 37.628C105.363 37.6431 105.526 37.6578 105.594 37.6578C105.638 37.6578 105.653 37.6802 105.653 37.7028C105.653 37.7402 105.616 37.7625 105.534 37.7625C105.124 37.7625 104.653 37.7402 104.616 37.7402C104.579 37.7402 104.108 37.7625 103.884 37.7625C103.802 37.7625 103.765 37.7474 103.765 37.7028C103.765 37.6802 103.78 37.6578 103.825 37.6578C103.892 37.6578 103.981 37.6431 104.048 37.628C104.198 37.5984 104.235 37.4341 104.265 37.2178C104.302 36.9042 104.302 36.3146 104.302 35.598V32.4407L103.197 32.4558C102.735 32.463 102.556 32.5155 102.436 32.6946C102.354 32.8216 102.332 32.8738 102.309 32.9259C102.287 32.9856 102.265 33.0007 102.234 33.0007C102.212 33.0007 102.197 32.9778 102.197 32.9335C102.197 32.8587 102.347 32.2169 102.361 32.1572C102.376 32.1122 102.406 32.0151 102.436 32.0151C102.488 32.0151 102.563 32.0899 102.765 32.105C102.981 32.1273 103.264 32.1421 103.354 32.1421H106.154C106.393 32.1421 106.564 32.1273 106.684 32.105C106.796 32.0899 106.862 32.0676 106.893 32.0676C106.93 32.0676 106.93 32.1122 106.93 32.1572C106.93 32.3813 106.908 32.8961 106.908 32.9778C106.908 33.0454 106.885 33.0755 106.855 33.0755C106.818 33.0755 106.803 33.0529 106.796 32.9485L106.788 32.8662C106.766 32.6421 106.587 32.4708 105.87 32.4558L104.929 32.4407V35.598Z" fill="#231F20"/>
<path fill-rule="evenodd" clip-rule="evenodd" d="M115.939 35.8296C115.939 35.4264 115.865 35.2621 115.768 35.0455C115.716 34.9264 114.715 33.2845 114.454 32.8961C114.267 32.6198 114.081 32.4332 113.946 32.3439C113.834 32.2691 113.693 32.2245 113.625 32.2245C113.588 32.2245 113.551 32.2094 113.551 32.1723C113.551 32.1421 113.581 32.1201 113.648 32.1201C113.789 32.1201 114.349 32.1421 114.387 32.1421C114.439 32.1421 114.723 32.1201 115.014 32.1201C115.096 32.1201 115.111 32.1421 115.111 32.1723C115.111 32.2021 115.066 32.2094 114.999 32.2395C114.939 32.2691 114.902 32.3143 114.902 32.3738C114.902 32.4633 114.939 32.5529 114.999 32.6651C115.118 32.8813 116.238 34.807 116.372 35.0235C116.514 34.7098 117.462 33.0755 117.612 32.8291C117.708 32.6723 117.738 32.5454 117.738 32.4485C117.738 32.3439 117.708 32.2619 117.619 32.2395C117.552 32.2169 117.507 32.2021 117.507 32.1648C117.507 32.1349 117.552 32.1201 117.627 32.1201C117.821 32.1201 118.059 32.1421 118.119 32.1421C118.164 32.1421 118.701 32.1201 118.843 32.1201C118.896 32.1201 118.94 32.1349 118.94 32.1648C118.94 32.2021 118.903 32.2245 118.843 32.2245C118.761 32.2245 118.619 32.2546 118.5 32.3291C118.35 32.4184 118.268 32.508 118.104 32.7094C117.858 33.0083 116.813 34.762 116.678 35.0832C116.566 35.3519 116.566 35.5832 116.566 35.8296V36.4714C116.566 36.5908 116.566 36.9042 116.589 37.2181C116.604 37.4341 116.671 37.5984 116.895 37.6283C117 37.6434 117.164 37.6579 117.231 37.6579C117.276 37.6579 117.29 37.6805 117.29 37.7031C117.29 37.7402 117.253 37.7625 117.171 37.7625C116.761 37.7625 116.29 37.7402 116.253 37.7402C116.215 37.7402 115.745 37.7625 115.521 37.7625C115.439 37.7625 115.402 37.7474 115.402 37.7031C115.402 37.6805 115.417 37.6579 115.462 37.6579C115.529 37.6579 115.619 37.6434 115.686 37.6283C115.835 37.5984 115.902 37.4341 115.917 37.2181C115.939 36.9042 115.939 36.5908 115.939 36.4714V35.8296Z" fill="#231F20"/>
<path fill-rule="evenodd" clip-rule="evenodd" d="M67.7902 7.97095C67.7902 7.97095 68.0206 7.74748 68.5955 7.6941C69.2241 7.63559 69.7948 7.27971 70.0653 6.70006C70.1299 6.56164 70.1718 6.41838 70.2487 6.28538C70.4481 5.94187 70.7757 5.605 71.1955 5.58811C71.5324 5.55192 71.7831 5.64571 72.0714 5.52116C72.3296 5.3957 72.3544 5.3767 72.3544 5.3767C72.3544 5.3767 72.1999 5.43129 71.9037 5.44606C71.6591 5.46778 71.2899 5.37248 71.0634 5.38183C70.8378 5.38183 70.357 5.48346 70.0801 5.7386C69.8038 5.99556 69.5366 6.40602 69.26 6.517C69.0217 6.61291 68.7539 6.69464 68.4948 6.67895C68.3355 6.6693 68.1811 6.62105 68.0239 6.5933C67.7519 6.54535 67.4762 6.56314 67.2074 6.62135L70.3863 2.54057L66.1322 5.59052C66.1322 5.59052 66.137 5.40113 66.2607 5.13452C66.3825 4.86973 66.7565 4.60041 66.8844 4.14683C66.9722 3.76532 66.9505 3.5334 66.7731 3.09398C66.612 2.70102 66.5985 2.39008 66.6437 2.14971C66.695 1.87798 66.8648 1.5963 67.0174 1.44852C67.2801 1.1964 67.3408 1.04802 67.3914 0.858619L67.4379 0.674651C67.4379 0.674651 67.4282 0.752159 67.2337 0.997048C67.0301 1.24254 66.904 1.19157 66.6488 1.42922C66.3919 1.66446 66.2094 1.95579 66.127 2.29779C66.0498 2.75017 66.1946 2.84849 66.1593 3.26106C66.1237 3.648 66.0335 3.77617 65.8607 4.0084C65.6981 4.18483 65.5048 4.33833 65.2783 4.44992C65.0623 4.56151 64.8729 4.75392 64.7561 5.03078L63.965 0L63.2082 5.03229C63.2082 5.03229 62.9865 4.81725 62.9389 4.4659C62.9087 4.24967 62.8951 3.67122 62.5528 3.31656C62.2662 3.0204 62.075 2.93294 61.6307 2.75892C61.3668 2.64854 61.0338 2.35178 60.8929 2.0333C60.7651 1.73654 60.7807 1.20363 60.74 1.07938C60.6833 0.864651 60.5144 0.665 60.5144 0.665C60.5144 0.665 60.6161 0.917127 60.6064 1.16202C60.5968 1.40721 60.4888 1.80741 60.5048 2.01159C60.5195 2.223 60.556 2.5454 60.9343 2.89222C61.3128 3.24146 61.4681 3.20044 61.7034 3.66157C61.9387 4.1224 61.898 4.35764 61.8147 4.61278C61.7327 4.86973 61.7106 5.14749 61.7474 5.30281C61.7885 5.48919 61.8026 5.59052 61.8026 5.59052L57.5513 2.54057L60.699 6.61924C60.699 6.61924 60.2794 6.62979 60.0611 6.43557C59.7579 6.17138 59.5537 6.03748 59.2002 5.94097C59.2002 5.94097 58.8672 5.82184 58.3871 5.96479C57.9038 6.10805 58.0097 6.09749 57.6825 6.14846C57.3543 6.19943 56.8286 6.11951 56.571 5.90357C56.3164 5.68733 56.1053 5.49824 55.9204 5.43762C55.7364 5.3767 55.5883 5.36011 55.5883 5.36011C55.5883 5.36011 55.8842 5.46416 56.1101 5.719C56.3405 5.98108 56.3966 6.22356 56.7239 6.40602C57.0687 6.59481 57.36 6.67021 57.668 6.6506C57.9229 6.63884 58.0755 6.56767 58.3931 6.60476C58.6148 6.62889 59.009 6.7447 59.19 6.97179C59.4714 7.31771 59.6189 7.60694 59.7576 7.73541C59.932 7.90038 60.1455 7.97095 60.1455 7.97095L54.9111 8.84194C54.9111 8.84194 62.2677 8.52406 63.9623 8.52406C65.6565 8.52406 73.1247 8.86275 73.1425 8.86365L67.7902 7.97095Z" fill="#231F20"/>
<path fill-rule="evenodd" clip-rule="evenodd" d="M128.81 27.7758H128.933C129.087 27.7758 129.136 27.7245 129.136 27.6367C129.136 27.5468 129.072 27.4932 128.959 27.4932H128.81V27.7758ZM129.149 28.2644C129.126 28.2339 129.113 28.2077 129.103 28.1616L129.075 28.0458C129.051 27.9559 128.974 27.9221 128.882 27.9221H128.809V28.2644H128.619V27.3364H128.982C129.19 27.3364 129.324 27.4263 129.324 27.6244C129.324 27.7783 129.216 27.8558 129.067 27.8636C129.164 27.8787 129.236 27.9073 129.267 28.0099L129.303 28.1483C129.316 28.1926 129.334 28.2339 129.36 28.2644H129.149ZM128.948 28.5294C129.339 28.5294 129.657 28.2341 129.657 27.8173C129.657 27.4008 129.339 27.1025 128.948 27.1025C128.557 27.1025 128.238 27.4008 128.238 27.8173C128.238 28.2341 128.557 28.5294 128.948 28.5294ZM128.946 27.0283C129.38 27.0283 129.735 27.3595 129.735 27.8173C129.735 28.2748 129.38 28.6041 128.946 28.6041C128.511 28.6041 128.159 28.2748 128.159 27.8173C128.159 27.3595 128.511 27.0283 128.946 27.0283Z" fill="#231F20"/>
</svg>
