<svg width="120" height="32" viewBox="0 0 120 32" fill="none" xmlns="http://www.w3.org/2000/svg">
<rect width="120" height="32" fill="black" fill-opacity="0"/>
<rect width="27.6876" height="31.4748" fill="black" fill-opacity="0" transform="translate(0 0.344238)"/>
<mask id="mask0" mask-type="alpha" maskUnits="userSpaceOnUse" x="0" y="0" width="28" height="32">
<path fill-rule="evenodd" clip-rule="evenodd" d="M0 0.344238H27.6876V31.8191H0V0.344238Z" fill="white"/>
</mask>
<g mask="url(#mask0)">
<path fill-rule="evenodd" clip-rule="evenodd" d="M27.6877 25.9095C24.8407 29.5114 20.4588 31.8192 15.548 31.8192C6.96034 31.8192 0 24.7737 0 16.081C0 7.3925 6.96034 0.344238 15.548 0.344238C20.4588 0.344238 24.8407 2.6534 27.6877 6.25392L27.1846 6.56531C24.6986 3.91723 21.1822 2.26527 17.2878 2.26527C9.74924 2.26527 3.63603 8.45263 3.63603 16.0841C3.63603 23.7152 9.74924 29.9026 17.2878 29.9026C21.1849 29.9026 24.7016 28.2506 27.1876 25.5946L27.6877 25.9095Z" fill="#060100"/>
</g>
<path fill-rule="evenodd" clip-rule="evenodd" d="M32.3491 20.8516C29.5758 20.8516 27.7422 18.6769 27.7422 16.0808C27.7422 13.4891 29.5973 11.3042 32.3491 11.3042C34.7389 11.3042 36.7966 13.3271 36.7966 16.0842C36.7966 18.7788 34.7896 20.8516 32.3491 20.8516ZM32.3491 8.56006C27.4675 8.56006 24.665 11.8767 24.665 16.0807C24.665 20.2893 27.4441 23.5997 32.3491 23.5997C37.0131 23.5997 39.8738 20.3226 39.8738 16.0807C39.8738 11.8767 37.0131 8.56006 32.3491 8.56006Z" fill="#231F20"/>
<path fill-rule="evenodd" clip-rule="evenodd" d="M74.98 18.9195C74.6981 19.3244 73.6015 20.8515 71.1332 20.8515C68.4687 20.8515 66.5266 18.8083 66.5266 16.0807C66.5266 13.327 68.5051 11.3041 71.1332 11.3041C73.6141 11.3041 74.7811 12.9358 74.9643 13.2111L77.2504 11.7907C77.0693 11.47 75.46 8.56006 71.1352 8.56006C66.4603 8.56006 63.4521 11.6534 63.4521 16.0807C63.4521 20.4885 66.445 23.6028 71.1332 23.6028C75.4039 23.6028 77.0132 20.7803 77.2722 20.3543L74.98 18.9195Z" fill="#231F20"/>
<path fill-rule="evenodd" clip-rule="evenodd" d="M21.4751 19.06C21.1766 19.4856 20.0297 21.0918 17.4393 21.0918C14.6402 21.0918 12.6002 18.9454 12.6002 16.0809C12.6002 13.1892 14.6749 11.0672 17.4393 11.0672C20.0426 11.0672 21.2667 12.78 21.4571 13.0667L23.8608 11.5771C23.6684 11.2378 21.9803 8.18408 17.4393 8.18408C12.5302 8.18408 9.37109 11.4298 9.37109 16.0809C9.37109 20.7088 12.5152 23.9773 17.4373 23.9773C21.9218 23.9773 23.61 21.014 23.8829 20.5691L21.4751 19.06Z" fill="#231F20"/>
<path fill-rule="evenodd" clip-rule="evenodd" d="M112.434 8.82197L112.523 4.78516L109.452 6.36313L109.361 8.82197H107.073V11.234H109.361V19.3878C109.361 22.2916 110.998 23.5994 113.163 23.5994C114.396 23.5994 115.164 23.3562 115.316 23.3142L115.687 20.8512C115.578 20.8753 114.972 21.0494 114.299 21.0494C113.098 21.0494 112.434 20.5911 112.434 19.1707V11.234H115.405V8.82197H112.434Z" fill="#231F20"/>
<path fill-rule="evenodd" clip-rule="evenodd" d="M86.0439 20.8516C83.0582 20.8516 81.3037 18.6614 81.3037 16.0842C81.3037 13.281 83.2635 11.3042 86.0449 11.3042C89.015 11.3042 90.7851 13.4953 90.7851 16.0842C90.7851 18.6573 89.0038 20.8516 86.0439 20.8516ZM90.3709 8.82225C90.3709 8.82225 90.3437 10.2636 90.3376 10.4962H90.2981C90.0401 10.2299 88.6089 8.56006 85.7187 8.56006C81.4015 8.56006 78.2305 11.5158 78.2305 16.0842C78.2305 20.4069 81.2002 23.5997 85.733 23.5997C88.4607 23.5997 89.9459 22.042 90.2981 21.6666H90.3376C90.3406 21.6842 90.3709 23.3396 90.3709 23.3396H93.4848V8.82225H90.3709Z" fill="#231F20"/>
<path fill-rule="evenodd" clip-rule="evenodd" d="M58.507 23.3416V14.2461C58.507 12.3378 57.5068 11.234 55.8489 11.234C54.1567 11.234 53.2188 12.389 53.2188 14.2461V23.3416H50.1518V14.2461C50.1518 12.334 49.1667 11.234 47.5071 11.234C45.8148 11.234 44.8606 12.386 44.8606 14.2461V23.3416H41.793V8.82225H44.6879L44.7165 10.2031H44.7739C44.9776 9.95189 46.1402 8.56006 48.3464 8.56006C50.8967 8.56006 51.858 10.2815 52.0776 10.6459C52.3795 10.2633 53.6077 8.56006 56.3079 8.56006C59.5723 8.56006 61.5474 10.6211 61.5474 13.5834V23.3416H58.507Z" fill="#231F20"/>
<path fill-rule="evenodd" clip-rule="evenodd" d="M102.279 14.7517C104.701 15.593 106.235 16.8527 106.235 19.0703C106.235 22.0993 103.668 23.5996 100.337 23.5996C97.3094 23.5996 95.6702 22.6303 95.1572 22.3154L96.3521 19.9491C96.6713 20.114 98.2568 21.0654 100.463 21.0654C102.022 21.0654 103.155 20.392 103.155 19.3745C103.155 18.4703 102.556 17.9122 100.993 17.3847L99.3582 16.8128C97.4484 16.1515 95.8245 14.9021 95.8245 12.6669C95.8245 10.132 98.0277 8.56299 101.06 8.56299C103.733 8.56299 105.172 9.45142 105.695 9.77142L104.514 12.0107C104.255 11.8786 102.894 11.0979 100.981 11.0979C99.5088 11.0979 98.8973 11.8153 98.8973 12.4925C98.8973 13.2078 99.3946 13.7511 100.739 14.2215L102.279 14.7517Z" fill="#231F20"/>
<path fill-rule="evenodd" clip-rule="evenodd" d="M118.028 23.5303H118.424C118.639 23.5303 118.786 23.4298 118.786 23.2302C118.786 23.031 118.635 22.9512 118.424 22.9512H118.028V23.5303ZM117.788 22.748H118.428C118.833 22.748 119.036 22.9497 119.036 23.2453C119.036 23.5505 118.8 23.6826 118.597 23.7153L119.088 24.4788H118.806L118.338 23.7339H118.028V24.4788H117.788V22.748Z" fill="#231F20"/>
<path fill-rule="evenodd" clip-rule="evenodd" d="M118.358 22.1353C117.542 22.1353 116.883 22.7993 116.883 23.6269C116.883 24.4348 117.542 25.1061 118.358 25.1061C119.156 25.1061 119.815 24.4348 119.815 23.6269C119.815 22.7993 119.156 22.1353 118.358 22.1353ZM119.617 23.6206C119.617 24.3267 119.052 24.9013 118.352 24.9013C117.651 24.9013 117.085 24.3267 117.085 23.6206C117.085 22.9115 117.651 22.3379 118.352 22.3379C119.052 22.3379 119.617 22.9115 119.617 23.6206Z" fill="#231F20"/>
</svg>
