<svg width="130" height="20" viewBox="0 0 130 20" fill="none" xmlns="http://www.w3.org/2000/svg">
<rect width="130" height="20" fill="black" fill-opacity="0"/>
<path fill-rule="evenodd" clip-rule="evenodd" d="M29.5449 19.7558H30.0367V0H29.5449V19.7558Z" fill="#231F20"/>
<path fill-rule="evenodd" clip-rule="evenodd" d="M21.1954 6.66309H19.0707H18.9462L18.8939 6.77712L17.3521 10.0508L15.8086 6.77572L15.7557 6.66309H15.6325H13.5804H13.3847V6.86238V7.97852V8.17958H13.5804H13.9308V12.8617H13.5508H13.3555V13.0624V14.1764V14.3768H13.5508H15.8561H16.0504V14.1764V13.0624V12.8617H15.8561H15.4578V9.53923L17.1798 13.1624L17.3521 13.5301L17.5309 13.1624L19.2712 9.53081V12.8617H18.8904H18.6948V13.0624V14.1764V14.3768H18.8904H21.1954H21.3893V14.1764V13.0624V12.8617H21.1954H20.7957V8.17958H21.1954H21.3893V7.97852V6.86238V6.66309H21.1954Z" fill="#231F20"/>
<path fill-rule="evenodd" clip-rule="evenodd" d="M5.39259 6.63867H2.57833H2.38402V6.83762V7.95411V8.15236H2.57833H2.82354L0.828492 12.8566H0.197063H0V13.0569V14.1734V14.3724H0.197063H2.71143H2.90884V14.1734V13.0569V12.8566H2.71143H2.48135L2.81529 12.0748H5.21376L5.54392 12.8566H5.29492H5.0982V13.0569V14.1734V14.3724H5.29492H7.81066H8.00497V14.1734V13.0569V12.8566H7.81066H7.19746L5.20309 8.15236H5.39259H5.58794V7.95411V6.83762V6.63867H5.39259ZM4.01423 9.24512L4.57 10.5592H3.45605L4.01423 9.24512Z" fill="#231F20"/>
<path fill-rule="evenodd" clip-rule="evenodd" d="M18.7545 0.784668H2.58154H2.35938V1.01344V5.42116V5.64818H2.58154H5.37414H5.59768V5.42116V3.78326H9.04818V15.4001H7.44416H7.22062V15.6268V18.4773V18.7054H7.44416H13.8915H14.1165V18.4773V15.6268V15.4001H13.8915H12.2879V3.78326H15.7188V5.39835V5.62853H15.9437H18.7545H18.9787V5.39835V1.01344V0.784668H18.7545Z" fill="#231F20"/>
<path fill-rule="evenodd" clip-rule="evenodd" d="M12.7705 16.7554L13.4528 16.0386V18.0056L12.7705 17.3386V16.7554Z" fill="white"/>
<path fill-rule="evenodd" clip-rule="evenodd" d="M11.6283 16.0899L10.9453 16.7769V2.41309L11.6283 3.10923V16.0899Z" fill="white"/>
<path fill-rule="evenodd" clip-rule="evenodd" d="M3.72772 2.16211L3.02441 1.46387H17.971L17.0881 2.16211H3.72772Z" fill="white"/>
<path fill-rule="evenodd" clip-rule="evenodd" d="M18.333 4.98971L17.6514 4.3241V2.54971L18.333 1.83252V4.98971Z" fill="white"/>
<rect width="92.1056" height="18.3221" fill="black" fill-opacity="0" transform="translate(37.8379 0.594238)"/>
<path fill-rule="evenodd" clip-rule="evenodd" d="M47.9339 3.74899H47.2178C47.1525 3.10407 47.0132 2.62723 46.801 2.31881C46.5871 2.01214 46.3567 1.82057 46.1108 1.75004C45.8635 1.67881 45.5808 1.64267 45.2586 1.64267H43.963V9.27987C43.963 9.58197 43.9936 9.81706 44.0538 9.98337C44.1147 10.1493 44.2529 10.2788 44.4748 10.3721C44.6952 10.4658 45.0212 10.51 45.4474 10.51V11.2174H40.3247V10.51C40.9517 10.51 41.3568 10.4171 41.5384 10.2339C41.7186 10.0497 41.808 9.73004 41.808 9.27987V1.64267H40.7247C40.2972 1.64267 39.943 1.676 39.661 1.74583C39.3807 1.81425 39.1327 2.00443 38.9192 2.3146C38.7056 2.62513 38.5832 3.10407 38.5532 3.74899H37.8379V0.790039H47.9339V3.74899Z" fill="#231F20"/>
<path fill-rule="evenodd" clip-rule="evenodd" d="M57.9047 7.79088L57.8208 11.2179H48.7188V10.5109C49.3467 10.5109 49.7519 10.4207 49.9321 10.2361C50.1137 10.0512 50.2045 9.73228 50.2045 9.28035V2.72842C50.2045 2.43053 50.1749 2.19684 50.1178 2.03053C50.0597 1.86456 49.9242 1.73474 49.7113 1.6386C49.496 1.54667 49.1665 1.49684 48.7188 1.49684V0.790527H57.1963L57.3318 3.4979H56.6374C56.4826 2.8979 56.3031 2.46737 56.0985 2.20877C55.8966 1.95018 55.6669 1.79053 55.4137 1.73053C55.161 1.67263 54.7789 1.64316 54.2723 1.64316H52.3591V5.33088H53.3981C53.755 5.33088 54.0212 5.2993 54.197 5.23544C54.3731 5.17123 54.4958 5.04947 54.566 4.86912C54.6365 4.68947 54.6846 4.40877 54.7098 4.02526H55.432V7.49018H54.739C54.7187 7.10526 54.6699 6.82175 54.588 6.6407C54.5079 6.45895 54.3813 6.33719 54.208 6.27579C54.035 6.21298 53.7695 6.18246 53.4132 6.18246H52.3591V8.63474C52.3591 9.04667 52.3684 9.34596 52.388 9.53544C52.4083 9.72491 52.4633 9.88316 52.5513 10.0084C52.6394 10.134 52.7818 10.2253 52.9802 10.2811C53.1786 10.3386 53.461 10.3649 53.8269 10.3649H54.6482C54.9959 10.3649 55.3257 10.3214 55.6404 10.2316C55.9537 10.1425 56.2605 9.91088 56.5621 9.53965C56.864 9.16772 57.0755 8.58491 57.1963 7.79088H57.9047Z" fill="#231F20"/>
<path fill-rule="evenodd" clip-rule="evenodd" d="M72.8105 7.54528L74.1515 3.9165L75.5598 7.54528H72.8105ZM79.2663 10.3455C79.0819 10.2356 78.9351 10.0799 78.8292 9.87669C78.7243 9.67494 78.5592 9.28371 78.3346 8.71283L75.2191 0.594238H74.5037L71.5588 8.46476C71.3521 9.01354 71.1595 9.43669 70.9834 9.73845C70.8032 10.037 70.6161 10.2423 70.4218 10.3497C70.3255 10.4027 70.2179 10.4416 70.1006 10.4683C69.9001 10.4388 69.7185 10.397 69.5737 10.3332C69.3282 10.2265 69.085 10.0441 68.8487 9.78897C68.6083 9.53108 68.304 9.15178 67.9322 8.64933L65.4457 5.32722L67.2688 3.18968C67.6667 2.72231 67.9687 2.38827 68.1754 2.18126C68.3848 1.97705 68.6266 1.81143 68.9003 1.68757C69.1744 1.55915 69.5053 1.4981 69.8925 1.4981V0.790379H65.6665V1.4981H66.0183C66.365 1.4981 66.6009 1.53494 66.7268 1.60933C66.8527 1.68336 66.9139 1.80512 66.9139 1.97424C66.9139 2.09213 66.8915 2.19003 66.8485 2.27038C66.8021 2.34968 66.7058 2.48652 66.562 2.68266L64.9415 4.6195L63.5174 2.74231C63.2113 2.30266 63.0582 2.02547 63.0582 1.91143C63.0582 1.72336 63.1294 1.60652 63.2722 1.56196C63.4159 1.5195 63.6295 1.4981 63.916 1.4981H64.3084V0.790379H58.7314V1.4981C59.1338 1.4981 59.4471 1.53494 59.6676 1.61354C59.8884 1.69038 60.082 1.81669 60.2467 1.99248C60.4125 2.16933 60.6804 2.50582 61.0536 2.99599L63.5174 6.30547L61.7018 8.48126C61.1891 9.08968 60.7736 9.53529 60.4579 9.81459C60.1429 10.0953 59.8564 10.2777 59.6029 10.3648C59.3491 10.4525 59.0595 10.5023 58.7314 10.51V11.2177H63.223V10.51C62.9269 10.51 62.6909 10.5023 62.5149 10.4788C62.3395 10.4595 62.1892 10.4009 62.0671 10.3065C61.9433 10.2121 61.8821 10.0711 61.8821 9.8802C61.8821 9.64792 62.0685 9.31845 62.4402 8.88827L64.0291 6.99529L65.6806 9.2202C65.9458 9.58371 66.0785 9.82371 66.0785 9.94161C66.0785 10.183 65.9753 10.3384 65.7673 10.4076C65.5575 10.4753 65.3229 10.51 65.0622 10.51H64.5873V11.2177H69.7037H70.5532H73.223V10.51C72.9128 10.51 72.6387 10.47 72.4055 10.3876C72.1723 10.3065 72.0564 10.1111 72.0564 9.80336C72.0564 9.63424 72.1276 9.35915 72.2686 8.97985L72.5159 8.30371H75.8309L76.3131 9.53389C76.3729 9.69283 76.4025 9.84792 76.4025 10.0041C76.4025 10.2237 76.3117 10.3634 76.126 10.4234C75.9399 10.4802 75.6424 10.51 75.2359 10.51V11.2177H80.0501V10.51C79.7147 10.51 79.452 10.4553 79.2663 10.3455Z" fill="#231F20"/>
<path fill-rule="evenodd" clip-rule="evenodd" d="M87.7675 8.11137C87.7675 8.42575 87.7032 8.76154 87.569 9.11312C87.4377 9.46821 87.2351 9.8061 86.9668 10.1303C86.7 10.4524 86.3622 10.7166 85.9544 10.9184C85.5434 11.1215 85.0726 11.2236 84.536 11.2236C84.0068 11.2236 83.4785 11.1051 82.9561 10.8707C82.4309 10.6356 81.988 10.2822 81.6234 9.81733C81.4656 10.1893 81.3651 10.5314 81.3215 10.8479H80.6426V7.35873H81.3215C81.4432 7.85909 81.6124 8.33207 81.8301 8.77102C82.0454 9.21312 82.3525 9.59382 82.748 9.91066C83.1422 10.2314 83.6309 10.3889 84.2038 10.3889C84.7066 10.3889 85.1076 10.2493 85.4092 9.96786C85.7122 9.68786 85.8646 9.33417 85.8646 8.90821C85.8646 8.66716 85.8158 8.45768 85.725 8.27663C85.63 8.09628 85.4932 7.93312 85.3171 7.79207C85.141 7.64681 84.8996 7.49488 84.5935 7.33242C84.2846 7.16856 83.9352 6.99663 83.5401 6.81663C82.9365 6.52645 82.4392 6.23137 82.0523 5.93768C81.6626 5.64049 81.3693 5.35277 81.1708 5.07628C80.971 4.79628 80.8314 4.53242 80.7574 4.28154C80.679 4.02996 80.6426 3.77698 80.6426 3.52049C80.6426 3.06295 80.7629 2.61277 81.0044 2.16926C81.2448 1.7247 81.5983 1.35979 82.0605 1.07628C82.5259 0.794174 83.0624 0.651367 83.6728 0.651367C84.1423 0.651367 84.5852 0.758385 85.0069 0.972771C85.4316 1.18751 85.7975 1.48119 86.1077 1.85417C86.1958 1.6426 86.2783 1.3461 86.3509 0.962244H87.0439V3.80926H86.3509C85.8591 2.26049 85.0027 1.48575 83.7846 1.48575C83.343 1.48575 82.9884 1.60505 82.7202 1.84295C82.4519 2.07944 82.3178 2.3847 82.3178 2.76084C82.3178 3.05452 82.4014 3.30961 82.5678 3.52891C82.7339 3.74435 82.9561 3.93242 83.2271 4.0854C83.5009 4.24189 83.9424 4.4654 84.5515 4.75347C85.2892 5.11102 85.8646 5.42049 86.2825 5.68119C86.6976 5.94189 87.0466 6.27277 87.3372 6.67031C87.6237 7.06716 87.7675 7.54891 87.7675 8.11137Z" fill="#231F20"/>
<path fill-rule="evenodd" clip-rule="evenodd" d="M98.8778 7.54528L97.4681 3.9165L96.1299 7.54528H98.8778ZM103.371 11.2177H98.5557V10.51C98.9604 10.51 99.2569 10.4802 99.4454 10.423C99.6283 10.3634 99.7236 10.2237 99.7236 10.0041C99.7236 9.84792 99.6926 9.69283 99.6325 9.53389L99.1493 8.30371H95.8353L95.5853 8.9802C95.4443 9.35915 95.3758 9.63424 95.3758 9.80336C95.3758 10.1111 95.4931 10.3062 95.7266 10.3876C95.9584 10.47 96.2308 10.51 96.541 10.51V11.2177H93.0234V10.51C93.3041 10.51 93.5417 10.4574 93.7402 10.3497C93.9341 10.2423 94.1226 10.037 94.3031 9.73845C94.4789 9.43669 94.6704 9.01354 94.8771 8.46476L97.8248 0.594238H98.5402L101.653 8.71283C101.879 9.28371 102.044 9.67494 102.149 9.87669C102.255 10.0799 102.4 10.2356 102.586 10.3455C102.77 10.4553 103.033 10.51 103.371 10.51V11.2177Z" fill="#231F20"/>
<path fill-rule="evenodd" clip-rule="evenodd" d="M125.645 11.2179H120.524V10.5102C120.965 10.5102 121.29 10.4677 121.496 10.3765C121.701 10.2874 121.835 10.1547 121.897 9.98351C121.961 9.81333 121.992 9.57754 121.992 9.28035V2.74246L118.136 11.2179H117.676L113.768 2.74246V8.94982C113.768 9.27754 113.779 9.52772 113.803 9.70351C113.824 9.87895 113.882 10.027 113.973 10.1498C114.066 10.2737 114.215 10.3635 114.414 10.4232C114.616 10.4804 114.897 10.5102 115.25 10.5102V11.2179H111.474V10.5102C111.834 10.5102 112.114 10.4789 112.312 10.4175C112.509 10.3579 112.656 10.266 112.745 10.1425C112.836 10.0193 112.891 9.87193 112.91 9.6993C112.931 9.52772 112.942 9.27754 112.942 8.95053V3.04316C112.942 2.60421 112.917 2.28351 112.874 2.09123C112.828 1.89509 112.705 1.74632 112.501 1.64807C112.297 1.54807 111.954 1.49825 111.474 1.49825V0.790527H115.204L118.596 8.14842L121.992 0.790527H125.645V1.49825C125.019 1.49825 124.613 1.59088 124.428 1.77754C124.247 1.96561 124.154 2.2814 124.154 2.72983V9.28035C124.154 9.56246 124.186 9.79123 124.247 9.96526C124.305 10.1382 124.445 10.2737 124.664 10.3691C124.882 10.4632 125.209 10.5102 125.645 10.5102V11.2179Z" fill="#231F20"/>
<path fill-rule="evenodd" clip-rule="evenodd" d="M43.8 14.8279C43.6088 14.8279 43.4747 14.8514 43.3935 14.8956C43.3113 14.9405 43.2608 15.0041 43.2425 15.0865C43.2246 15.1693 43.2147 15.2949 43.2147 15.4658V17.0521C43.2147 17.3458 43.2037 17.5623 43.1854 17.7107C43.1658 17.8574 43.1136 18.0058 43.0283 18.1553C42.8704 18.4448 42.6524 18.643 42.3679 18.7525C42.0859 18.8623 41.8149 18.9163 41.5522 18.9163C41.3596 18.9163 41.1611 18.8893 40.9572 18.8367C40.754 18.7837 40.5638 18.7012 40.3887 18.5816C40.2126 18.463 40.0778 18.3093 39.9863 18.117C39.9375 18.0128 39.8983 17.9044 39.8732 17.7991C39.845 17.6921 39.8298 17.5911 39.824 17.4956C39.8185 17.4041 39.8164 17.2802 39.8164 17.1276L39.8102 15.3377C39.8102 15.1507 39.7738 15.0195 39.7026 14.9433C39.6314 14.8658 39.4639 14.8279 39.2012 14.8279V14.5381H41.3259V14.8279C41.1457 14.8279 41.0102 14.8472 40.9207 14.8844C40.8337 14.9216 40.7756 14.9728 40.7478 15.0441C40.7202 15.1125 40.7072 15.2107 40.7072 15.3377V17.1276C40.7072 17.3118 40.7154 17.4728 40.7337 17.6111C40.7505 17.7507 40.7791 17.8718 40.8162 17.9742C40.8867 18.1469 41.0074 18.2837 41.1752 18.3862C41.3441 18.4858 41.5305 18.5402 41.7324 18.5402C41.9511 18.5402 42.153 18.4844 42.3401 18.3777C42.5272 18.2665 42.6582 18.1269 42.7315 17.9542C42.7879 17.8177 42.8264 17.6791 42.8446 17.5325C42.8601 17.3886 42.8704 17.2146 42.8704 17.0135V15.4658C42.8704 15.3276 42.867 15.2233 42.8584 15.1567C42.8487 15.0897 42.8264 15.0283 42.7896 14.977C42.7524 14.9255 42.6909 14.8865 42.6049 14.863C42.5189 14.8402 42.4003 14.8279 42.2479 14.8279V14.5381H43.8V14.8279Z" fill="#231F20"/>
<path fill-rule="evenodd" clip-rule="evenodd" d="M53.733 14.8279C53.5325 14.8279 53.3867 14.8486 53.3014 14.8907C53.214 14.9335 53.1597 14.9942 53.1391 15.0739C53.1198 15.1535 53.1078 15.2833 53.1078 15.4658V18.8749H52.8234L50.0645 15.5328V17.9002C50.0645 18.0798 50.0748 18.2093 50.0964 18.2921C50.1174 18.3732 50.1735 18.436 50.2622 18.4788C50.3509 18.5216 50.4947 18.5458 50.6952 18.5458V18.8353H49.127V18.5458C49.3144 18.5458 49.4499 18.5216 49.5338 18.4788C49.6174 18.436 49.6693 18.3732 49.6899 18.2921C49.7095 18.2093 49.7195 18.0798 49.7195 17.9002V15.7083C49.7195 15.53 49.7137 15.396 49.7054 15.3076C49.6958 15.2191 49.6727 15.1409 49.6384 15.0753C49.6026 15.0083 49.5448 14.9542 49.4657 14.9142C49.3856 14.8714 49.2766 14.843 49.1342 14.8279V14.5381H50.362L52.7642 17.4286V15.4658C52.7642 15.3062 52.7522 15.1837 52.7319 15.0981C52.7088 15.0125 52.6559 14.9448 52.5699 14.8984C52.4843 14.8514 52.3487 14.8279 52.1599 14.8279V14.5381H53.733V14.8279Z" fill="#231F20"/>
<path fill-rule="evenodd" clip-rule="evenodd" d="M61.1854 18.8353H59.0459V18.5458C59.224 18.5458 59.3575 18.5258 59.4497 18.4904C59.5411 18.456 59.5999 18.4048 59.6285 18.3349C59.6557 18.2637 59.6705 18.1669 59.6705 18.0356V15.3377C59.6705 15.1511 59.634 15.0195 59.5573 14.9433C59.4816 14.8658 59.3114 14.8279 59.0459 14.8279V14.5381H61.1854V14.8279C61.0073 14.8279 60.8718 14.8472 60.781 14.8823C60.6902 14.917 60.6317 14.9697 60.6021 15.0384C60.5743 15.1097 60.5602 15.2079 60.5602 15.3377V18.0356C60.5602 18.1612 60.5743 18.2553 60.6021 18.3265C60.6272 18.3949 60.6847 18.449 60.7734 18.4858C60.8607 18.5258 60.999 18.5458 61.1854 18.5458V18.8353Z" fill="#231F20"/>
<path fill-rule="evenodd" clip-rule="evenodd" d="M71.1508 14.8279C71.0531 14.8307 70.9665 14.8444 70.8925 14.87C70.8199 14.8956 70.7598 14.9342 70.7109 14.9897C70.6635 15.0441 70.6157 15.1167 70.5668 15.2093C70.5194 15.3019 70.4554 15.4486 70.3687 15.6483L68.9951 18.9163H68.7063L67.2687 15.4858C67.1806 15.2707 67.1108 15.1251 67.0634 15.0441C67.0128 14.9641 66.9447 14.9079 66.8622 14.877C66.781 14.8444 66.6569 14.8279 66.4932 14.8279V14.5381H68.6378V14.8279C68.4339 14.8388 68.2953 14.8546 68.2145 14.8791C68.136 14.9044 68.0972 14.9683 68.0972 15.0711C68.0972 15.1651 68.1223 15.2665 68.1725 15.376L69.1406 17.6721L70.0375 15.5272C70.1129 15.3416 70.1507 15.2135 70.1507 15.1423C70.1507 15.0055 70.1032 14.9198 70.0111 14.8865C69.9175 14.8514 69.7775 14.8339 69.5887 14.8279V14.5381H71.1508V14.8279Z" fill="#231F20"/>
<path fill-rule="evenodd" clip-rule="evenodd" d="M80.2718 17.4226L80.2353 18.8353H76.4805V18.5458C76.7401 18.5458 76.9076 18.5058 76.9829 18.4318C77.0545 18.3535 77.0937 18.2237 77.0937 18.0356V15.3377C77.0937 15.2135 77.0809 15.1167 77.0586 15.0497C77.0349 14.9798 76.9791 14.9255 76.8897 14.8865C76.8003 14.8486 76.6676 14.8276 76.4805 14.8276V14.5381H79.9812L80.0328 15.6525H79.748C79.6851 15.4048 79.6125 15.2279 79.5272 15.1209C79.4419 15.0156 79.347 14.95 79.2435 14.9255C79.1389 14.9002 78.9821 14.8872 78.774 14.8872H77.9834V16.4079H78.4109C78.5591 16.4079 78.6691 16.3935 78.7407 16.3679C78.8133 16.3423 78.8648 16.2925 78.8944 16.2184C78.9223 16.1441 78.9433 16.0286 78.9529 15.8707H79.2504V17.3002H78.9642C78.9556 17.1391 78.9364 17.0237 78.9013 16.9469C78.8707 16.8725 78.8174 16.8226 78.7462 16.7984C78.675 16.7714 78.566 16.7584 78.4177 16.7584H77.9834V17.769C77.9834 17.9402 77.9875 18.064 77.9947 18.1423C78.0044 18.2209 78.0267 18.2851 78.0632 18.3363C78.0979 18.389 78.1581 18.4248 78.2406 18.4518C78.3228 18.4746 78.4387 18.483 78.5897 18.483H78.9278C79.0715 18.483 79.207 18.4676 79.3357 18.4276C79.4657 18.3935 79.5929 18.2963 79.7171 18.144C79.8416 17.99 79.9279 17.7507 79.9812 17.4226H80.2718Z" fill="#231F20"/>
<path fill-rule="evenodd" clip-rule="evenodd" d="M88.563 15.681C88.563 15.3417 88.4599 15.1122 88.2545 14.9996C88.0502 14.8877 87.7834 14.8315 87.4539 14.8315C87.4092 14.8315 87.3714 14.8336 87.3463 14.8351H87.2568V16.5631H87.4539C87.7682 16.5631 88.0296 16.5091 88.2432 16.4063C88.4568 16.3052 88.563 16.0614 88.563 15.681ZM90.3066 18.8353H89.1806C89.137 18.7882 89.084 18.7212 89.0255 18.6328C88.964 18.5461 88.8969 18.4405 88.823 18.3209C88.7531 18.2012 88.693 18.1012 88.6455 18.0244L88.359 17.5426C88.2304 17.3272 88.1341 17.1791 88.067 17.0995C88.0031 17.0209 87.9288 16.9696 87.8435 16.9468C87.7599 16.924 87.6158 16.9156 87.4163 16.9156H87.2568V18.0356C87.2568 18.1538 87.2678 18.2493 87.296 18.3223C87.3183 18.3935 87.3771 18.4489 87.4707 18.4861C87.5642 18.5258 87.6966 18.5461 87.8731 18.5461V18.8353H85.7607V18.5461C86.0176 18.5461 86.1827 18.5061 86.258 18.4293C86.332 18.3535 86.3671 18.224 86.3671 18.0356V15.3261C86.3671 15.1409 86.332 15.0114 86.2608 14.9335C86.1882 14.856 86.0218 14.8174 85.7607 14.8174V14.5181L86.7357 14.4868C86.8128 14.4812 86.8963 14.4788 86.9913 14.476C87.0893 14.4749 87.1787 14.4731 87.2595 14.4731C87.3252 14.4731 87.4315 14.4749 87.5797 14.4767C87.7905 14.484 87.9876 14.4981 88.1688 14.5167C88.3521 14.5381 88.4945 14.5616 88.6008 14.5921C88.7586 14.6321 88.9038 14.6984 89.0448 14.7917C89.1834 14.8837 89.2952 15.0086 89.3859 15.1595C89.4736 15.3107 89.5159 15.4886 89.5159 15.6882C89.5159 15.8307 89.4877 15.9703 89.4265 16.1044C89.3663 16.2412 89.2656 16.3623 89.1301 16.4665C88.9946 16.5707 88.8171 16.656 88.5967 16.7174C88.7476 16.8072 88.8732 16.9212 88.9808 17.0553C89.084 17.1889 89.2491 17.437 89.4781 17.7963C89.6067 18.0016 89.7144 18.1553 89.8007 18.2595C89.8846 18.3647 89.9644 18.4363 90.0339 18.4745C90.1054 18.5103 90.1976 18.5331 90.3066 18.5461V18.8353Z" fill="#231F20"/>
<path fill-rule="evenodd" clip-rule="evenodd" d="M98.7735 17.6024C98.7735 17.7364 98.7411 17.8761 98.6868 18.0259C98.6308 18.1754 98.5472 18.3178 98.4354 18.4547C98.3223 18.5901 98.1795 18.7014 98.0079 18.7866C97.8373 18.8708 97.6375 18.9164 97.4126 18.9164C97.188 18.9164 96.9641 18.8652 96.7451 18.7666C96.5243 18.667 96.3385 18.5189 96.1848 18.3221C96.1191 18.4789 96.0772 18.6245 96.0576 18.7568H95.7725V17.2859H96.0576C96.1092 17.4954 96.1821 17.6964 96.2729 17.8817C96.3637 18.0684 96.4919 18.228 96.6611 18.3621C96.8259 18.4947 97.0284 18.5631 97.2716 18.5631C97.4828 18.5631 97.6516 18.5045 97.7775 18.3863C97.9072 18.2666 97.9701 18.1182 97.9701 17.9385C97.9701 17.8375 97.9519 17.7505 97.913 17.6722C97.8707 17.595 97.8164 17.5284 97.741 17.4684C97.6654 17.4084 97.5636 17.3428 97.4363 17.2733C97.3067 17.2063 97.1598 17.1336 96.9937 17.0578C96.7382 16.9354 96.527 16.8115 96.3664 16.6873C96.2027 16.5635 96.0772 16.4421 95.9933 16.3238C95.9111 16.207 95.855 16.0957 95.8203 15.9905C95.7879 15.8835 95.7725 15.7764 95.7725 15.6698C95.7725 15.4771 95.823 15.2863 95.9234 15.1024C96.0283 14.9143 96.1748 14.7603 96.3705 14.6406C96.5662 14.5224 96.7911 14.4624 97.0494 14.4624C97.2437 14.4624 97.4322 14.5059 97.611 14.5964C97.7899 14.6863 97.9422 14.8073 98.0736 14.9642C98.1125 14.8743 98.1434 14.7512 98.174 14.5922H98.4646V15.7908H98.174C97.9687 15.135 97.6097 14.8087 97.0955 14.8087C96.9084 14.8087 96.7574 14.8603 96.6457 14.9599C96.5325 15.061 96.4768 15.1894 96.4768 15.3477C96.4768 15.4729 96.5115 15.5799 96.5827 15.6726C96.6525 15.7638 96.7451 15.8421 96.8596 15.9091C96.9755 15.9747 97.1626 16.0701 97.4184 16.1915C97.7297 16.341 97.9701 16.4722 98.1448 16.5817C98.3209 16.6929 98.4688 16.8298 98.5919 16.9964C98.7119 17.1635 98.7735 17.3659 98.7735 17.6024Z" fill="#231F20"/>
<path fill-rule="evenodd" clip-rule="evenodd" d="M106.403 18.8353H104.263V18.5458C104.444 18.5458 104.578 18.5258 104.669 18.4904C104.76 18.456 104.82 18.4048 104.848 18.3349C104.876 18.2637 104.89 18.1669 104.89 18.0356V15.3377C104.89 15.1511 104.851 15.0195 104.775 14.9433C104.698 14.8658 104.53 14.8279 104.263 14.8279V14.5381H106.403V14.8279C106.227 14.8279 106.091 14.8472 106.001 14.8823C105.908 14.917 105.85 14.9697 105.82 15.0384C105.795 15.1097 105.78 15.2079 105.78 15.3377V18.0356C105.78 18.1612 105.794 18.2553 105.82 18.3265C105.847 18.3949 105.906 18.449 105.992 18.4858C106.08 18.5258 106.219 18.5458 106.403 18.5458V18.8353Z" fill="#231F20"/>
<path fill-rule="evenodd" clip-rule="evenodd" d="M115.955 15.7567H115.661C115.634 15.4904 115.577 15.2935 115.489 15.1683C115.399 15.0412 115.306 14.9616 115.203 14.9335C115.105 14.903 114.985 14.8872 114.855 14.8872H114.319V18.0356C114.319 18.1626 114.332 18.2581 114.356 18.3265C114.38 18.3949 114.438 18.449 114.529 18.4862C114.621 18.5262 114.754 18.5462 114.93 18.5462V18.8353H112.818V18.5462C113.076 18.5462 113.242 18.5062 113.317 18.4293C113.392 18.3535 113.428 18.224 113.428 18.0356V14.8872H112.981C112.805 14.8872 112.659 14.903 112.544 14.93C112.428 14.9598 112.326 15.037 112.237 15.1651C112.147 15.2935 112.098 15.4904 112.087 15.7567H111.791V14.5381H115.955V15.7567Z" fill="#231F20"/>
<path fill-rule="evenodd" clip-rule="evenodd" d="M125.649 14.8279C125.535 14.8388 125.441 14.863 125.364 14.9079C125.289 14.9525 125.215 15.0241 125.139 15.1279C125.062 15.2279 124.949 15.3932 124.803 15.6226L123.917 17.0209V18.0356C123.917 18.1539 123.928 18.2465 123.955 18.3163C123.976 18.3862 124.033 18.4402 124.119 18.4802C124.206 18.5244 124.343 18.5458 124.53 18.5458V18.8353H122.409V18.5458C122.584 18.5458 122.718 18.5258 122.809 18.4904C122.9 18.456 122.957 18.4048 122.987 18.3349C123.014 18.2637 123.028 18.1669 123.028 18.0356V17.0763L121.971 15.2777C121.961 15.2665 121.953 15.2521 121.943 15.2363C121.936 15.2205 121.928 15.2107 121.925 15.2065C121.832 15.0539 121.752 14.9556 121.679 14.9079C121.611 14.8623 121.504 14.8353 121.363 14.8279V14.5381H123.34V14.8279C123.238 14.8279 123.161 14.8314 123.104 14.8388C123.045 14.8444 122.999 14.8623 122.961 14.8879C122.924 14.9156 122.908 14.9598 122.908 15.0195C122.908 15.0581 122.918 15.1097 122.945 15.1651C122.968 15.2233 123.026 15.329 123.115 15.4858L123.772 16.6174L124.397 15.6097C124.531 15.3918 124.598 15.2307 124.598 15.1293C124.598 14.9967 124.557 14.9142 124.47 14.8791C124.386 14.8458 124.267 14.8279 124.117 14.8279V14.5381H125.649V14.8279Z" fill="#231F20"/>
<path fill-rule="evenodd" clip-rule="evenodd" d="M105.55 5.68262C106.082 6.40648 106.718 7.33349 107.436 8.44788C107.044 8.87104 106.627 9.09349 106.195 9.09349C105.768 9.09349 105.377 8.89595 105.036 8.51174C104.686 8.117 104.51 7.69806 104.51 7.26613C104.51 6.98823 104.611 6.69595 104.81 6.39385C104.974 6.14156 105.23 5.90437 105.55 5.68262ZM106.22 4.40274C105.767 3.71888 105.657 3.31607 105.657 3.10589C105.657 2.87081 105.722 2.68975 105.858 2.53221C105.993 2.38484 106.163 2.31396 106.389 2.31396C106.618 2.31396 106.79 2.38589 106.93 2.54589C107.07 2.70379 107.141 2.92133 107.141 3.1887C107.141 3.60063 106.824 4.00835 106.22 4.40274ZM111.38 8.59798H111.031H110.961L110.924 8.65728C110.704 8.985 110.482 9.12465 110.186 9.12465C109.96 9.12465 109.739 9.05342 109.541 8.91588C109.34 8.77798 109.051 8.44044 108.69 7.9257C108.854 7.67588 109.024 7.34114 109.208 6.89623C109.446 6.30991 109.671 5.91412 109.884 5.71518C110.095 5.51588 110.344 5.37623 110.626 5.29904L110.674 5.2836L110.767 5.25869V5.15869V4.76886V4.63763H110.639H108.022H107.895V4.76886V5.16605V5.2836L108.008 5.29904L108.065 5.30325C108.718 5.38044 108.803 5.65974 108.803 5.89483C108.803 6.00886 108.769 6.2257 108.624 6.61623C108.541 6.83588 108.417 7.0657 108.265 7.30851L106.612 4.97342C107.66 4.39693 108.197 3.78009 108.197 3.14114C108.197 2.68255 108 2.31027 107.61 2.03237C107.238 1.76886 106.819 1.63623 106.365 1.63623C105.844 1.63623 105.406 1.81658 105.058 2.17693C104.714 2.53553 104.537 2.95097 104.537 3.41062C104.537 3.91658 104.749 4.48781 105.153 5.10325C104.471 5.5829 103.988 5.99026 103.739 6.31237C103.447 6.68255 103.299 7.14465 103.299 7.68535C103.299 8.15483 103.416 8.57588 103.65 8.94079C103.883 9.29939 104.184 9.58149 104.548 9.77728C104.915 9.97553 105.302 10.0745 105.702 10.0745C106.45 10.0745 107.173 9.7036 107.854 8.98851C108.438 9.7022 109.109 10.0745 109.857 10.0745C110.248 10.0745 110.594 9.96184 110.89 9.73833C111.193 9.51097 111.392 9.21167 111.484 8.84395C111.484 8.84535 111.504 8.76255 111.504 8.76255L111.545 8.59798H111.38Z" fill="#231F20"/>
<rect width="1.99776" height="2.06807" fill="black" fill-opacity="0" transform="translate(127.945 16.8276)"/>
<mask id="mask0" mask-type="alpha" maskUnits="userSpaceOnUse" x="127" y="16" width="3" height="3">
<path fill-rule="evenodd" clip-rule="evenodd" d="M127.945 16.8276H129.943V18.8957H127.945V16.8276Z" fill="white"/>
</mask>
<g mask="url(#mask0)">
<path fill-rule="evenodd" clip-rule="evenodd" d="M128.758 17.8233H128.888C129.037 17.8233 129.163 17.7685 129.163 17.6236C129.163 17.524 129.091 17.4243 128.888 17.4243C128.83 17.4243 128.79 17.4278 128.758 17.432V17.8233ZM128.758 18.4582H128.578V17.3081C128.672 17.2958 128.762 17.2817 128.897 17.2817C129.067 17.2817 129.181 17.3179 129.249 17.367C129.314 17.4175 129.35 17.4975 129.35 17.6074C129.35 17.7575 129.252 17.8495 129.13 17.8859V17.8944C129.228 17.9123 129.298 18.0042 129.319 18.173C129.346 18.354 129.373 18.4238 129.39 18.4582H129.203C129.175 18.4238 129.149 18.3154 129.125 18.1652C129.098 18.0186 129.027 17.9635 128.884 17.9635H128.758V18.4582ZM128.947 16.9878C128.503 16.9878 128.139 17.3769 128.139 17.8573C128.139 18.3481 128.503 18.7331 128.952 18.7331C129.401 18.7366 129.76 18.3481 129.76 17.8615C129.76 17.3769 129.401 16.9878 128.952 16.9878H128.947ZM128.951 16.8276C129.504 16.8276 129.943 17.2852 129.943 17.8575C129.943 18.4396 129.504 18.8957 128.947 18.8957C128.394 18.8957 127.945 18.4396 127.945 17.8575C127.945 17.2852 128.394 16.8276 128.947 16.8276H128.951Z" fill="#231F20"/>
</g>
</svg>
