<svg width="130" height="44" viewBox="0 0 130 44" fill="none" xmlns="http://www.w3.org/2000/svg">
<rect width="130" height="44" fill="black" fill-opacity="0"/>
<rect width="27.7793" height="43.4941" fill="black" fill-opacity="0" transform="translate(0 0.352051)"/>
<mask id="mask0" mask-type="alpha" maskUnits="userSpaceOnUse" x="0" y="0" width="28" height="44">
<path fill-rule="evenodd" clip-rule="evenodd" d="M0 0.352051H27.7793V43.8462H0V0.352051Z" fill="white"/>
</mask>
<g mask="url(#mask0)">
<path fill-rule="evenodd" clip-rule="evenodd" d="M24.6422 32.681C24.4896 33.0292 24.3324 33.3689 24.1706 33.7011L24.0449 33.9482C22.5576 36.9258 20.6893 39.2458 18.57 40.7735L18.3418 40.9337C17.2601 41.6785 16.1163 42.2231 14.9265 42.5423C15.13 42.1083 15.2801 41.5845 15.2586 40.9967C16.0467 40.7176 16.7977 40.3212 17.5131 39.834L17.7473 39.6756C19.7556 38.2324 21.4562 36.025 22.788 33.3956L22.9106 33.1436C25.1993 28.4958 26.3534 22.5941 26.0355 17.2796C26.0288 17.1677 26.0196 17.0579 26.0115 16.947L25.991 16.6615C25.6981 13.1563 24.738 10.2495 23.3172 8.29237L23.1487 8.06533C21.9225 6.48169 20.3763 5.58162 18.6297 5.57881C17.5696 5.57705 16.8387 6.38348 16.6197 7.4166C16.4427 8.24767 16.6151 9.28255 17.1439 9.95945C17.399 10.2425 17.2842 10.3326 17.2156 10.334C16.5317 10.3473 14.51 9.90383 14.7068 7.65385C14.8347 6.18777 15.5539 5.22329 16.3752 4.64178C17.1199 4.17503 17.9674 4.12012 18.3171 4.12012C20.6645 4.12012 22.6855 5.23948 24.2194 7.25855L24.3833 7.48242C25.8571 9.53247 26.8554 12.4453 27.221 16.0198C27.2355 16.1603 27.2444 16.3028 27.2567 16.444L27.28 16.7168C27.7025 22.069 26.7558 27.8463 24.6422 32.681ZM14.0567 43.1754C14.0503 43.1828 13.9698 43.2835 13.8889 43.2835C13.8073 43.2835 13.7274 43.1828 13.7207 43.1754C13.3293 42.6855 12.745 41.7344 12.9651 40.5992C13.028 40.2757 13.5805 40.1313 13.8889 40.1313C14.1973 40.1313 14.7494 40.2757 14.8127 40.5992C15.0327 41.7344 14.4491 42.6855 14.0567 43.1754ZM9.45173 40.9439L9.22317 40.7844C7.09866 39.2578 5.22638 36.935 3.73526 33.9535L3.61127 33.7092C3.44806 33.3738 3.2891 33.0323 3.13578 32.681C1.02222 27.8453 0.0751278 22.0658 0.499747 16.7126L0.522709 16.4405C0.535073 16.3004 0.543905 16.1592 0.558389 16.0198C0.922601 12.4484 1.9195 9.5374 3.39119 7.4877L3.56005 7.25679C5.0939 5.23877 7.11456 4.12012 9.46162 4.12012C9.81135 4.12012 10.6585 4.17503 11.4031 4.64178C12.2248 5.22329 12.9437 6.18777 13.0712 7.65385C13.2687 9.90383 10.9669 10.2593 10.5158 10.2555C10.4465 10.2548 10.4105 10.1897 10.6344 9.95945C11.1633 9.28255 11.336 8.24767 11.1587 7.4166C10.9404 6.38348 10.2091 5.57705 9.14863 5.57881C7.40035 5.58162 5.85236 6.48345 4.62583 8.06991L4.4545 8.30117C3.03651 10.2586 2.07882 13.1634 1.78738 16.665L1.76689 16.9512C1.75912 17.0607 1.74994 17.1691 1.74323 17.2796C1.42529 22.5952 2.57975 28.4982 4.86923 33.146L4.99217 33.3988C6.32537 36.0317 8.02986 38.2409 10.042 39.683L10.2759 39.8411C10.9881 40.3251 11.7359 40.719 12.5202 40.9967C12.4983 41.5845 12.6491 42.1083 12.8526 42.5423C11.6677 42.2248 10.5295 41.6834 9.45173 40.9439ZM22.7198 17.9348C22.4079 16.0411 21.411 13.6844 19.4814 12.2803C21.9225 10.8508 22.8992 9.27948 23.1267 8.67334C24.5105 10.591 25.4586 13.4732 25.625 17.0978C25.14 17.3515 24.0908 17.8134 22.7198 17.9348ZM19.8447 32.0632C20.2683 31.3166 20.6915 30.4918 21.1076 29.5749C21.3468 29.0469 21.9523 27.6012 22.3977 25.5909L22.4228 25.4836C22.6701 24.3424 22.8308 23.1857 22.8997 22.0449L22.9033 21.9622C22.9103 21.8495 22.916 21.7348 22.9209 21.62C22.9449 21.0301 22.9449 20.4345 22.9209 19.8488C22.9057 19.483 22.8644 18.8959 22.7612 18.1972C24.0789 18.0803 25.097 17.6649 25.6375 17.3936C25.8219 22.7327 24.6565 28.6512 22.3684 33.2395C21.8686 33.135 20.6544 32.814 19.8447 32.0632ZM15.502 37.3524C16.6642 36.5115 18.1804 34.9314 19.7082 32.2998C20.5317 33.0397 21.6868 33.3657 22.2425 33.4864C20.9256 36.0542 19.2508 38.1831 17.2591 39.5299C16.8896 39.2423 15.9103 38.4077 15.502 37.3524ZM12.5344 37.5335C12.5362 37.5345 12.5383 37.5359 12.5404 37.5374C13.1795 38.0016 13.8376 38.2618 13.8881 38.2744C13.939 38.2618 14.5971 38.0016 15.2362 37.5374C15.2489 37.5289 15.2623 37.5191 15.2754 37.5103C15.6968 38.5451 16.5994 39.3484 17.0269 39.6867C16.4486 40.0552 15.8452 40.3597 15.2157 40.5892C15.2129 40.5674 15.2097 40.5456 15.2054 40.5234C15.0779 39.8637 14.1937 39.7303 13.8807 39.7303C13.5681 39.7303 12.7008 39.8637 12.5722 40.5234C12.5687 40.5456 12.5669 40.5674 12.5631 40.5892C11.9427 40.3632 11.3464 40.063 10.7734 39.7015C11.1892 39.3748 12.1024 38.5729 12.5344 37.5335ZM8.08323 32.3262C9.62098 34.9679 11.1453 36.5438 12.3082 37.376C11.8868 38.4404 10.8892 39.2761 10.5387 39.546C8.53329 38.2028 6.83693 36.0729 5.50195 33.5019C6.01524 33.3973 7.22057 33.0837 8.08323 32.3262ZM5.01514 18.2009C4.91235 18.8979 4.87137 19.4836 4.85618 19.849C4.83074 20.4347 4.83074 21.0303 4.85618 21.6202C4.86148 21.735 4.86713 21.8498 4.87384 21.9624L4.87808 22.0451C4.94696 23.1859 5.10664 24.3426 5.35533 25.4838L5.379 25.5912C5.82446 27.6014 6.4296 29.0471 6.66911 29.5751C7.08984 30.503 7.51835 31.3358 7.94686 32.0891C7.09055 32.8652 5.80751 33.1708 5.37476 33.2553C3.05773 28.6648 1.87889 22.7403 2.14031 17.3994C2.68468 17.6726 3.69995 18.0858 5.01514 18.2009ZM8.61876 12.739C9.22249 12.3564 10.0074 12.1874 10.8033 12.1357C12.1747 12.0466 13.1486 12.569 13.8325 12.588H13.8668C14.5514 12.569 15.6179 12.0466 16.9893 12.1357C17.7859 12.1874 18.5786 12.3564 19.1823 12.739C21.9749 14.5135 22.368 18.6026 22.4246 19.9424C22.6234 24.6806 21.12 28.3812 20.654 29.4024C18.722 33.6422 16.3887 36.5384 14.0858 37.5578L13.9 37.6399L13.7156 37.5578C11.412 36.5384 9.07906 33.6422 7.14673 29.4024C6.68042 28.3812 5.17694 24.6806 5.37654 19.9424C5.43306 18.6026 5.82624 14.5135 8.61876 12.739ZM5.05723 17.9373C3.69435 17.8183 2.6487 17.3625 2.15625 17.1063C2.37386 13.4627 3.30258 10.6034 4.64851 8.69873C4.88731 9.31755 5.93331 10.8653 8.34573 12.2758C6.41799 13.6813 5.3681 16.0446 5.05723 17.9373ZM12.9805 2.94512C13.3715 3.19363 13.6118 3.60336 13.7633 4.04019C13.8304 4.23344 13.9452 4.23555 14.0141 4.04336C14.1872 3.56076 14.4762 3.12006 14.9248 2.86979C16.0676 2.23302 17.3358 2.70928 17.8509 3.71388C17.6336 3.75084 17.4471 3.77267 17.2242 3.84236C17.114 3.87651 17.0041 3.90924 16.8921 3.93564L16.8095 3.955C16.3068 4.1486 16.0334 4.29539 15.6826 4.63859C14.9941 5.31161 14.4264 6.3303 14.3084 7.61897C13.9746 11.2625 18.1685 10.6905 18.3801 10.6729C18.9227 10.6729 19.3311 9.82249 19.3311 8.69468C19.3311 7.56688 18.9121 6.71609 18.3801 6.71609C18.0554 6.71609 17.4927 6.97516 17.4404 7.9847C17.4044 8.69433 17.7523 9.63769 18.202 9.69648C18.4352 9.7271 18.6486 9.31561 18.7164 8.89884C18.775 8.53628 18.7443 7.96745 18.4196 7.88649C18.3168 7.86044 18.2126 7.92345 18.1868 8.02588C18.1639 8.11846 18.3879 8.27651 18.3794 8.69433C18.367 9.31808 17.7379 9.0062 17.823 8.01638C17.8993 7.13814 18.3479 7.19411 18.367 7.19305C18.6192 7.19305 18.9976 7.71612 18.9976 8.69468C18.9976 9.56588 18.5765 10.5033 17.77 10.0136C17.0914 9.51907 16.8229 8.38035 17.0105 7.49964C17.0967 7.09484 17.4471 5.99449 18.5765 5.99449C20.175 5.99449 21.688 6.83401 22.9018 8.37612C22.9011 8.37753 22.8997 8.37859 22.899 8.37964L22.911 8.38774C22.9177 8.39619 22.9237 8.40499 22.9304 8.41344C22.8117 8.80979 21.9346 10.5367 19.2449 12.1066C19.2413 12.1042 19.2382 12.101 19.2339 12.0985C18.6471 11.7694 18.1081 11.6814 17.5231 11.6402C16.9918 11.6026 16.4329 11.5645 15.915 11.6891L14.2879 12.0799C14.0767 12.1309 13.8566 12.132 13.6443 12.0834L11.8868 11.6821C11.3191 11.5526 10.7299 11.5758 10.1509 11.6402C9.63546 11.6972 9.24264 11.8556 8.60535 12.114C8.60041 12.1161 8.48948 12.025 8.48525 12.0281C5.8153 10.479 4.9756 8.86083 4.84277 8.43491C6.05446 6.84774 7.57313 5.99449 9.20307 5.99449C10.3321 5.99449 10.6822 7.09484 10.768 7.49964C10.9552 8.38035 10.6875 9.51907 10.0089 10.0136C9.20307 10.5033 8.78092 9.56588 8.78092 8.69468C8.78092 7.71612 9.15997 7.19305 9.41185 7.19305C9.43022 7.19411 9.88063 7.13814 9.95658 8.01638C10.0407 9.0062 9.41185 9.31808 9.39913 8.69433C9.39065 8.27651 9.61533 8.11846 9.59201 8.02588C9.56587 7.92345 9.46237 7.86044 9.35992 7.88649C9.03492 7.96745 9.00383 8.53628 9.06318 8.89884C9.12995 9.31561 9.34332 9.7271 9.57682 9.69648C10.0265 9.63769 10.3748 8.69433 10.3385 7.9847C10.2862 6.97516 9.72413 6.71609 9.39913 6.71609C8.86818 6.71609 8.44745 7.56688 8.44745 8.69468C8.44745 9.82249 8.85652 10.6729 9.39913 10.6729C9.61038 10.6905 13.8043 11.2625 13.4712 7.61897C13.3493 6.29334 12.6926 5.25283 11.9504 4.58086C11.6201 4.28201 11.2318 4.08419 10.7617 3.92262C10.4374 3.82547 10.1982 3.75929 9.92796 3.71388C10.4624 2.67232 11.8059 2.19852 12.9805 2.94512ZM13.8747 0.788574C15.4792 0.788574 15.8363 2.14377 15.8406 2.15785C15.731 2.16525 15.6244 2.17862 15.5191 2.20009L15.2269 2.27718C14.6829 2.45917 14.2325 2.88438 13.939 3.39373C13.9326 3.40745 13.9142 3.43913 13.8906 3.45427C13.8676 3.43913 13.8499 3.40745 13.8425 3.39373C13.549 2.88438 13.071 2.46409 12.5266 2.28281L12.2345 2.20502C12.1296 2.18355 12.0218 2.17017 11.9141 2.16313C11.9165 2.1487 12.2705 0.788574 13.8747 0.788574ZM27.6181 15.9597C27.3825 13.6587 26.8788 11.6344 26.1641 9.92469C26.1415 9.87224 26.0634 9.68779 26.0465 9.64767C25.4601 8.31112 24.7387 7.17346 23.899 6.266C22.3786 4.60597 20.4971 3.69359 18.4143 3.66402C18.3383 3.66226 18.374 3.66155 18.374 3.66155C18.0349 2.92271 17.1351 2.34226 16.3244 2.22927C16.3244 2.22927 15.8577 0.352051 13.8908 0.352051C11.9245 0.352051 11.4879 2.21131 11.4879 2.21131C10.6779 2.3236 9.74526 2.92341 9.40755 3.66155C9.40755 3.66155 9.4404 3.66226 9.3648 3.66402C7.28162 3.69359 5.40086 4.60597 3.88043 6.266C3.04072 7.17346 2.31937 8.31112 1.73401 9.64767C1.71564 9.68779 1.63687 9.87224 1.61567 9.92469C0.89855 11.6344 0.39586 13.6587 0.161295 15.9597C-0.990689 27.2287 4.09591 41.0795 13.2447 43.2049C13.387 43.4171 13.718 43.8462 13.8894 43.8462C14.0607 43.8462 14.3921 43.4171 14.5348 43.2049C23.6832 41.0795 28.7694 27.2287 27.6181 15.9597Z" fill="#231F20"/>
</g>
<path fill-rule="evenodd" clip-rule="evenodd" d="M18.049 15.9912V16.917L18.2366 16.8885C18.2394 16.8878 18.2751 16.8836 18.3246 16.8836C18.4274 16.8836 18.6163 16.9012 18.7347 17.0215C18.8463 17.1345 18.8813 17.325 18.8417 17.5752C18.8382 17.5844 16.973 25.642 16.6179 27.1778C16.2099 25.2362 13.9872 14.6343 13.9872 14.6343L13.978 14.5889H13.5372L13.5301 14.6367C13.5301 14.6367 11.9217 24.9577 11.6002 27.0233C11.1813 25.2351 9.38917 17.5844 9.38917 17.5844C9.38422 17.5355 9.3821 17.4886 9.3821 17.4453C9.3821 17.2289 9.43333 17.0694 9.53613 16.9719C9.67213 16.8413 9.87879 16.8596 9.89716 16.8617L10.0812 16.886L10.083 15.9912H6.96191V16.8663L7.10004 16.8878C7.16822 16.9012 7.51653 16.9853 7.57376 17.3024C7.57447 17.3077 11.2251 32.9175 11.3801 33.5817L11.3907 33.625H11.9397L11.9464 33.5779C11.9634 33.4698 13.4492 23.7813 13.7272 21.9668C14.0801 23.7732 15.9722 33.473 15.9927 33.5796L16.0019 33.625H16.4918L20.1156 17.2933C20.199 16.954 20.4978 16.9177 20.6225 16.9177C20.6405 16.9177 20.6529 16.9184 20.6589 16.9195L20.838 16.9335V15.9912H18.049Z" fill="#231F20"/>
<path fill-rule="evenodd" clip-rule="evenodd" d="M45.0307 16.8798C46.5465 17.4219 45.905 19.0488 45.5552 20.1932L43.3594 27.5415L40.6583 18.8475C40.3863 17.9647 40.2524 17.3223 40.3673 16.8203H37.6274V16.8798C38.6963 17.443 38.3088 18.7475 37.9386 19.9725L35.6639 27.6024L32.7704 18.266C32.6538 17.883 32.4599 17.2617 32.5372 16.8203H29.7002V16.8798C30.672 17.5627 30.9645 18.8682 31.3132 19.9725L33.6066 27.381C34.247 29.4497 34.4222 29.3089 36.1889 30.6339L39.2213 20.4938L41.3571 27.4011C42 29.4691 42.1364 29.3688 43.9232 30.6339L48.0221 16.8203H45.0307V16.8798Z" fill="#231F20"/>
<path fill-rule="evenodd" clip-rule="evenodd" d="M48.6826 16.8798C49.6739 17.2617 49.5368 18.7274 49.5368 19.6518V27.2198C49.5368 28.1223 49.6534 29.6099 48.6826 29.971V30.0316H52.3745V29.971C51.4034 29.5888 51.5189 28.1223 51.5189 27.2198V19.6518C51.5189 18.7475 51.4034 17.2617 52.3745 16.8798V16.8203H48.6826V16.8798Z" fill="#231F20"/>
<path fill-rule="evenodd" clip-rule="evenodd" d="M55.7739 19.772C55.7739 18.3869 57.1739 17.9451 58.2807 17.9451C59.3701 17.9451 60.574 18.4066 61.3321 19.2092V16.9405C60.3985 16.6392 59.4083 16.498 58.4365 16.498C56.0664 16.498 53.5597 17.4643 53.5597 19.992C53.5597 24.2491 60.2423 23.6869 60.2423 26.819C60.2423 28.2246 58.5732 28.906 57.4657 28.906C55.9495 28.906 54.3556 28.264 53.21 27.2407L53.7738 29.7498C54.8812 30.1718 56.0664 30.3528 57.2513 30.3528C60.284 30.3528 62.4587 28.3443 62.4587 26.1971C62.4587 22.482 55.7739 22.5218 55.7739 19.772Z" fill="#231F20"/>
<path fill-rule="evenodd" clip-rule="evenodd" d="M70.335 28.6876C67.3425 28.6876 65.3985 26.056 65.3985 23.1056C65.3985 20.1935 67.2645 18.166 69.9457 18.166C71.2273 18.166 72.4726 18.607 73.5412 19.3103V17.0015C72.3935 16.7203 71.1895 16.4985 70.0051 16.4985C66.021 16.4985 63.1836 19.2498 63.1836 23.4062C63.1836 27.7038 66.021 30.3529 70.6074 30.3529C71.6173 30.3529 72.6266 30.1934 73.5412 29.7503L74.5321 27.4222H74.4728C73.2487 28.1438 71.7922 28.6876 70.335 28.6876Z" fill="#231F20"/>
<path fill-rule="evenodd" clip-rule="evenodd" d="M81.4428 28.9064C78.3927 28.9064 76.4678 26.0161 76.4678 23.2043C76.4678 20.1722 78.3927 17.9243 81.405 17.9243C84.4723 17.9243 86.2796 20.7558 86.2796 23.6873C86.2796 26.6793 84.3946 28.9064 81.4428 28.9064ZM81.5386 16.4804C77.4602 16.3783 74.2529 19.5706 74.2529 23.3849C74.2529 27.5029 77.4983 30.3531 81.3457 30.3531C85.2125 30.3531 88.4939 27.3811 88.4939 23.2842C88.4939 19.6727 85.6202 16.4593 81.5386 16.4804Z" fill="#231F20"/>
<path fill-rule="evenodd" clip-rule="evenodd" d="M98.4761 16.8798C99.5065 17.4828 99.4871 18.2867 99.4871 19.4103V27.0209L92.3753 17.745L92.1029 17.3427C91.9669 17.1811 91.8881 17.0822 91.8118 16.8393V16.8203H88.9755V16.8798C89.9851 17.4828 89.9851 18.2867 89.9851 19.4103V27.4219C89.9851 28.5451 89.9851 29.3476 88.9561 29.971V30.0316H92.3954V29.971C91.3646 29.3476 91.384 28.5451 91.384 27.4219V19.6518L98.0493 28.3842C98.9039 29.5296 99.5065 30.1931 100.885 30.6747V19.4103C100.885 18.2867 100.885 17.4828 101.896 16.8798V16.8203H98.4761V16.8798Z" fill="#231F20"/>
<path fill-rule="evenodd" clip-rule="evenodd" d="M104.739 19.772C104.739 18.3869 106.138 17.9451 107.246 17.9451C108.334 17.9451 109.539 18.4066 110.296 19.2092V16.9405C109.364 16.6392 108.373 16.498 107.4 16.498C105.032 16.498 102.524 17.4643 102.524 19.992C102.524 24.2491 109.207 23.6869 109.207 26.819C109.207 28.2246 107.537 28.906 106.429 28.906C104.913 28.906 103.322 28.264 102.174 27.2407L102.738 29.7498C103.845 30.1718 105.032 30.3528 106.217 30.3528C109.246 30.3528 111.423 28.3443 111.423 26.1971C111.423 22.482 104.739 22.5218 104.739 19.772Z" fill="#231F20"/>
<path fill-rule="evenodd" clip-rule="evenodd" d="M112.156 16.8798C113.146 17.2617 113.011 18.7274 113.011 19.6518V27.2198C113.011 28.1223 113.129 29.6099 112.156 29.971V30.0316H115.846V29.971C114.875 29.5888 114.993 28.1223 114.993 27.2198V19.6518C114.993 18.7475 114.875 17.2617 115.846 16.8798V16.8203H112.156V16.8798Z" fill="#231F20"/>
<rect width="12.9402" height="13.8544" fill="black" fill-opacity="0" transform="translate(116.806 16.8203)"/>
<mask id="mask1" mask-type="alpha" maskUnits="userSpaceOnUse" x="116" y="16" width="14" height="15">
<path fill-rule="evenodd" clip-rule="evenodd" d="M116.806 16.8203H129.746V30.6747H116.806V16.8203Z" fill="white"/>
</mask>
<g mask="url(#mask1)">
<path fill-rule="evenodd" clip-rule="evenodd" d="M126.326 16.8203V16.8798C127.358 17.4828 127.338 18.2867 127.338 19.4103V27.0209L120.225 17.7447L119.953 17.3427C119.818 17.1811 119.74 17.0822 119.661 16.8393V16.8203H116.824V16.8798C117.834 17.4828 117.834 18.2867 117.834 19.4103V27.4218C117.834 28.5451 117.834 29.3476 116.806 29.971V30.0316H120.245V29.971C119.215 29.3476 119.235 28.5451 119.235 27.4218V19.6514L125.899 28.3842C126.753 29.5293 127.358 30.1931 128.736 30.6747V19.4103C128.736 18.2867 128.736 17.4828 129.746 16.8798V16.8203H126.326Z" fill="#231F20"/>
</g>
<path fill-rule="evenodd" clip-rule="evenodd" d="M35.1646 35.7405C35.3063 35.7405 35.4335 35.7166 35.5455 35.669C35.6578 35.6212 35.7521 35.5543 35.8298 35.468C35.9072 35.3818 35.9669 35.279 36.0079 35.16C36.0489 35.0411 36.0697 34.9094 36.0697 34.7648V32.6235H36.5939V34.7648C36.5939 34.9714 36.5607 35.1629 36.495 35.3385C36.429 35.5145 36.3343 35.6662 36.2106 35.7944C36.0867 35.9228 35.9372 36.0228 35.7606 36.0953C35.584 36.1675 35.3854 36.2034 35.1646 36.2034C34.9435 36.2034 34.7453 36.1675 34.5687 36.0953C34.3921 36.0228 34.2423 35.9228 34.1186 35.7944C33.9946 35.6662 33.9 35.5145 33.8339 35.3385C33.7682 35.1629 33.7354 34.9714 33.7354 34.7648V32.6235H34.2617V34.7623C34.2617 34.9066 34.2822 35.039 34.3225 35.159C34.3627 35.2787 34.4217 35.3818 34.4995 35.468C34.5768 35.5543 34.6715 35.6212 34.7838 35.669C34.8958 35.7166 35.023 35.7405 35.1646 35.7405Z" fill="#231F20"/>
<path fill-rule="evenodd" clip-rule="evenodd" d="M40.4565 32.6235V36.1618H40.1895C40.1485 36.1618 40.1139 36.1545 40.087 36.1397C40.0598 36.1249 40.0323 36.1013 40.004 36.0682L37.9985 33.4835C38.0021 33.5278 38.0049 33.5711 38.007 33.6141C38.0098 33.657 38.0109 33.6971 38.0109 33.7348V36.1618H37.5488V32.6235H37.8205C37.8668 32.6235 37.9014 32.6292 37.9243 32.6397C37.9473 32.6503 37.9731 32.6746 38.001 32.7122L40.0114 35.2994C40.0068 35.2519 40.0029 35.2055 40.0005 35.16C39.998 35.115 39.9966 35.0728 39.9966 35.0333V32.6235H40.4565Z" fill="#231F20"/>
<mask id="mask2" mask-type="alpha" maskUnits="userSpaceOnUse" x="0" y="0" width="130" height="44">
<path fill-rule="evenodd" clip-rule="evenodd" d="M0 43.8462H129.746V0.352051H0V43.8462Z" fill="white"/>
</mask>
<g mask="url(#mask2)">
<path fill-rule="evenodd" clip-rule="evenodd" d="M41.4736 36.1618H42.0028V32.6235H41.4736V36.1618Z" fill="#231F20"/>
<path fill-rule="evenodd" clip-rule="evenodd" d="M45.9439 32.6235L44.4994 36.1618H44.0271L42.583 32.6235H43.0037C43.05 32.6235 43.0871 32.6348 43.1161 32.658C43.145 32.6809 43.1669 32.7105 43.1818 32.7467L44.1409 35.1516C44.1642 35.2107 44.1868 35.2755 44.2091 35.3463C44.2313 35.417 44.2515 35.4909 44.2698 35.568C44.2864 35.4909 44.3041 35.417 44.3242 35.3463C44.344 35.2755 44.3652 35.2107 44.3885 35.1516L45.3455 32.7467C45.3568 32.714 45.3777 32.6851 45.4084 32.6605C45.4388 32.6359 45.4766 32.6235 45.5211 32.6235H45.9439Z" fill="#231F20"/>
<path fill-rule="evenodd" clip-rule="evenodd" d="M48.7254 35.7351L48.7229 36.1613H46.5225V32.623H48.7229V33.0493H47.0516V34.1708H48.3965V34.5823H47.0516V35.7351H48.7254Z" fill="#231F20"/>
<path fill-rule="evenodd" clip-rule="evenodd" d="M50.5198 34.3283C50.6551 34.3283 50.7741 34.3121 50.8773 34.279C50.9801 34.2463 51.0663 34.1998 51.1355 34.1399C51.2047 34.0801 51.2567 34.0087 51.2913 33.9252C51.3259 33.8425 51.3432 33.751 51.3432 33.6507C51.3432 33.4472 51.2761 33.2937 51.1419 33.1903C51.0073 33.0868 50.8059 33.0347 50.5371 33.0347H50.04V34.3283H50.5198ZM52.1769 36.1613H51.7071C51.6131 36.1613 51.5446 36.1247 51.5018 36.0508L50.624 34.8234C50.5961 34.7826 50.5653 34.7533 50.5325 34.7361C50.4993 34.7185 50.4502 34.7101 50.3841 34.7101H50.0404V36.1613H49.5137V32.623H50.5374C50.7663 32.623 50.9642 32.6466 51.1298 32.6931C51.2952 32.7399 51.4322 32.8068 51.5403 32.893C51.6481 32.9793 51.7283 33.0831 51.7798 33.2049C51.8321 33.326 51.8579 33.4626 51.8579 33.6139C51.8579 33.7368 51.8388 33.8526 51.801 33.961C51.7632 34.0698 51.7074 34.1669 51.6339 34.2532C51.5608 34.3394 51.4711 34.4137 51.3662 34.476C51.2605 34.5386 51.1408 34.5861 51.0073 34.6189C51.073 34.6583 51.1302 34.7136 51.1779 34.784L52.1769 36.1613Z" fill="#231F20"/>
<path fill-rule="evenodd" clip-rule="evenodd" d="M54.6193 33.2C54.603 33.2281 54.5854 33.2486 54.5677 33.2619C54.5493 33.275 54.526 33.2813 54.4981 33.2813C54.4684 33.2813 54.4349 33.2676 54.3967 33.2408C54.3589 33.2137 54.3116 33.1831 54.2547 33.1493C54.1978 33.1159 54.1297 33.0856 54.0509 33.0585C53.9714 33.0314 53.8767 33.0176 53.7665 33.0176C53.6626 33.0176 53.5711 33.0314 53.4931 33.0585C53.4147 33.0856 53.3493 33.1225 53.2967 33.1694C53.2437 33.2162 53.2038 33.2711 53.1766 33.3344C53.1494 33.3978 53.1359 33.4661 53.1359 33.54C53.1359 33.6354 53.16 33.7143 53.2087 33.7769C53.2575 33.8389 53.321 33.8927 53.4005 33.9371C53.4793 33.9814 53.569 34.0198 53.6697 34.0525C53.7704 34.0856 53.8735 34.1194 53.9792 34.155C54.0844 34.1902 54.1872 34.231 54.2883 34.2771C54.3886 34.3229 54.4787 34.3806 54.5575 34.4506C54.6369 34.5203 54.7005 34.6059 54.7493 34.7069C54.798 34.8076 54.822 34.9315 54.822 35.0776C54.822 35.2335 54.7955 35.3799 54.7419 35.5161C54.6882 35.6527 54.6104 35.7717 54.5083 35.8738C54.4059 35.9755 54.2801 36.0554 54.1311 36.1135C53.9816 36.1719 53.8124 36.2011 53.6231 36.2011C53.509 36.2011 53.3988 36.1902 53.2914 36.168C53.1843 36.1459 53.0829 36.1145 52.9876 36.0744C52.8915 36.0343 52.8021 35.9857 52.7191 35.929C52.6361 35.8724 52.5612 35.8087 52.4951 35.7379L52.646 35.4866C52.6608 35.4669 52.6788 35.4507 52.6993 35.4373C52.7198 35.4243 52.7431 35.4179 52.77 35.4179C52.8042 35.4179 52.8445 35.4359 52.8897 35.4718C52.9349 35.508 52.9911 35.5478 53.0579 35.5915C53.1246 35.6351 53.2045 35.6745 53.2977 35.7111C53.3906 35.7471 53.5044 35.765 53.6379 35.765C53.7464 35.765 53.8439 35.7506 53.9297 35.7221C54.0152 35.6932 54.0873 35.6524 54.1459 35.5985C54.2042 35.5454 54.2494 35.4809 54.2805 35.4056C54.3119 35.3299 54.3278 35.2458 54.3278 35.1543C54.3278 35.0504 54.3035 34.966 54.2561 34.9001C54.2081 34.8347 54.1445 34.7794 54.0657 34.7351C53.9866 34.6907 53.8965 34.653 53.7962 34.6217C53.6955 34.5907 53.5923 34.558 53.4871 34.5246C53.3814 34.4908 53.2783 34.452 53.178 34.4077C53.0773 34.3633 52.9876 34.3053 52.9081 34.2338C52.8293 34.162 52.7657 34.0726 52.7177 33.9652C52.67 33.8575 52.646 33.7248 52.646 33.5671C52.646 33.4408 52.6707 33.3183 52.7205 33.2C52.77 33.0817 52.842 32.9772 52.9367 32.8856C53.0314 32.7948 53.1483 32.722 53.2868 32.6664C53.4249 32.6114 53.5832 32.584 53.7612 32.584C53.9608 32.584 54.1441 32.6157 54.3116 32.679C54.479 32.742 54.6246 32.8328 54.7479 32.9511L54.6193 33.2Z" fill="#231F20"/>
<path fill-rule="evenodd" clip-rule="evenodd" d="M55.5977 36.1618H56.1268V32.6235H55.5977V36.1618Z" fill="#231F20"/>
<path fill-rule="evenodd" clip-rule="evenodd" d="M59.5227 33.0621H58.3954V36.1618H57.8708V33.0621H56.7383V32.6235H59.5227V33.0621Z" fill="#231F20"/>
<path fill-rule="evenodd" clip-rule="evenodd" d="M61.6785 34.7623V36.1618H61.1542V34.7623L59.8535 32.6235H60.3159C60.3619 32.6235 60.399 32.6344 60.4272 32.657C60.4551 32.6788 60.4784 32.708 60.4961 32.7443L61.268 34.0671C61.2991 34.128 61.3277 34.1857 61.3531 34.2399C61.3785 34.2941 61.4015 34.3473 61.4209 34.4001C61.4393 34.3473 61.4605 34.2941 61.4842 34.2399C61.5082 34.1857 61.5357 34.128 61.5672 34.0671L62.3359 32.7443C62.3525 32.7147 62.3755 32.6869 62.4041 32.6616C62.433 32.6362 62.4694 32.6235 62.5139 32.6235H62.9792L61.6785 34.7623Z" fill="#231F20"/>
<path fill-rule="evenodd" clip-rule="evenodd" d="M67.6576 34.3927C67.6576 34.1822 67.6286 33.9931 67.571 33.8259C67.5135 33.6584 67.4312 33.5162 67.3252 33.3997C67.2185 33.2832 67.0903 33.1934 66.9394 33.1311C66.7882 33.0684 66.6197 33.0371 66.4335 33.0371C66.2474 33.0371 66.0785 33.0684 65.928 33.1311C65.7772 33.1934 65.6483 33.2832 65.5409 33.3997C65.4335 33.5162 65.3512 33.6584 65.2936 33.8259C65.236 33.9931 65.207 34.1822 65.207 34.3927C65.207 34.6046 65.236 34.7939 65.2936 34.9604C65.3512 35.1273 65.4335 35.2688 65.5409 35.3853C65.6483 35.5022 65.7772 35.5912 65.928 35.6528C66.0785 35.7144 66.2474 35.7454 66.4335 35.7454C66.6197 35.7454 66.7882 35.7144 66.9394 35.6528C67.0903 35.5912 67.2185 35.5022 67.3252 35.3853C67.4312 35.2688 67.5135 35.1273 67.571 34.9604C67.6286 34.7939 67.6576 34.6046 67.6576 34.3927ZM68.1968 34.3924C68.1968 34.6568 68.1544 34.8993 68.0696 35.1204C67.9848 35.3414 67.8647 35.5318 67.7096 35.692C67.5549 35.8522 67.3698 35.9768 67.1536 36.0655C66.9374 36.1542 66.6976 36.1985 66.434 36.1985C66.1719 36.1985 65.9324 36.1542 65.7155 36.0655C65.4989 35.9768 65.3131 35.8522 65.1595 35.692C65.0051 35.5318 64.885 35.3414 64.7995 35.1204C64.7136 34.8993 64.6709 34.6568 64.6709 34.3924C64.6709 34.1295 64.7136 33.887 64.7995 33.6655C64.885 33.4438 65.0051 33.2526 65.1595 33.0928C65.3131 32.9327 65.4989 32.8074 65.7155 32.718C65.9324 32.6286 66.1719 32.5835 66.434 32.5835C66.6976 32.5835 66.9374 32.6286 67.1536 32.718C67.3698 32.8074 67.5549 32.9327 67.7096 33.0928C67.8647 33.2526 67.9848 33.4438 68.0696 33.6655C68.1544 33.887 68.1968 34.1295 68.1968 34.3924Z" fill="#231F20"/>
<path fill-rule="evenodd" clip-rule="evenodd" d="M69.4999 33.0498V34.235H70.9239V34.6613H69.4999V36.1618H68.9707V32.6235H71.1712V33.0498H69.4999Z" fill="#231F20"/>
<path fill-rule="evenodd" clip-rule="evenodd" d="M77.9293 32.6235L76.8212 36.1618H76.3467L75.4809 33.5377C75.4615 33.4849 75.4442 33.4219 75.4293 33.348C75.4109 33.4233 75.3936 33.4866 75.377 33.5377L74.502 36.1618H74.0297L72.9219 32.6235H73.3617C73.408 32.6235 73.4468 32.6344 73.4779 32.657C73.5093 32.6788 73.5302 32.7091 73.5401 32.7467L74.2399 35.1146C74.253 35.1608 74.265 35.2107 74.2756 35.2649C74.2862 35.3192 74.2975 35.3758 74.3091 35.435C74.3204 35.3758 74.3324 35.3192 74.3452 35.2649C74.3575 35.2107 74.3717 35.1608 74.3883 35.1146L75.1895 32.7467C75.199 32.714 75.2202 32.6851 75.2523 32.6605C75.2845 32.6359 75.323 32.6235 75.3675 32.6235H75.5183C75.5646 32.6235 75.6024 32.6348 75.6321 32.658C75.6618 32.6809 75.6833 32.7105 75.6964 32.7467L76.4948 35.1146C76.5244 35.2051 76.5513 35.3075 76.5742 35.4226C76.594 35.3093 76.6152 35.2069 76.6385 35.1146L77.3408 32.7467C77.3486 32.714 77.3694 32.6851 77.4026 32.6605C77.4355 32.6359 77.4743 32.6235 77.5189 32.6235H77.9293Z" fill="#231F20"/>
<path fill-rule="evenodd" clip-rule="evenodd" d="M78.5361 36.1618H79.0653V32.6235H78.5361V36.1618Z" fill="#231F20"/>
<path fill-rule="evenodd" clip-rule="evenodd" d="M81.8898 33.2C81.8735 33.2281 81.8559 33.2486 81.8382 33.2619C81.8198 33.275 81.7965 33.2813 81.7686 33.2813C81.7389 33.2813 81.7054 33.2676 81.6672 33.2408C81.6294 33.2137 81.5821 33.1831 81.5252 33.1493C81.4683 33.1159 81.4002 33.0856 81.3214 33.0585C81.2419 33.0314 81.1472 33.0176 81.037 33.0176C80.9331 33.0176 80.8417 33.0314 80.7636 33.0585C80.6852 33.0856 80.6198 33.1225 80.5672 33.1694C80.5142 33.2162 80.4743 33.2711 80.4471 33.3344C80.4199 33.3978 80.4064 33.4661 80.4064 33.54C80.4064 33.6354 80.4305 33.7143 80.4792 33.7769C80.528 33.8389 80.5915 33.8927 80.671 33.9371C80.7498 33.9814 80.8395 34.0198 80.9402 34.0525C81.0409 34.0856 81.144 34.1194 81.2497 34.155C81.3549 34.1902 81.4577 34.231 81.5588 34.2771C81.6591 34.3229 81.7492 34.3806 81.828 34.4506C81.9074 34.5203 81.971 34.6059 82.0198 34.7069C82.0685 34.8076 82.0925 34.9315 82.0925 35.0776C82.0925 35.2335 82.0661 35.3799 82.0124 35.5161C81.9587 35.6527 81.8809 35.7717 81.7789 35.8738C81.6764 35.9755 81.5506 36.0554 81.4016 36.1135C81.2521 36.1719 81.0829 36.2011 80.8936 36.2011C80.7795 36.2011 80.6693 36.1902 80.5619 36.168C80.4548 36.1459 80.3534 36.1145 80.2581 36.0744C80.162 36.0343 80.0726 35.9857 79.9896 35.929C79.9066 35.8724 79.8317 35.8087 79.7656 35.7379L79.9165 35.4866C79.9313 35.4669 79.9493 35.4507 79.9698 35.4373C79.9903 35.4243 80.0136 35.4179 80.0405 35.4179C80.0747 35.4179 80.115 35.4359 80.1602 35.4718C80.2054 35.508 80.2616 35.5478 80.3284 35.5915C80.3951 35.6351 80.475 35.6745 80.5682 35.7111C80.6611 35.7471 80.7749 35.765 80.9084 35.765C81.0169 35.765 81.1144 35.7506 81.2002 35.7221C81.2857 35.6932 81.3578 35.6524 81.4164 35.5985C81.4747 35.5454 81.5199 35.4809 81.551 35.4056C81.5824 35.3299 81.5983 35.2458 81.5983 35.1543C81.5983 35.0504 81.574 34.966 81.5266 34.9001C81.4786 34.8347 81.415 34.7794 81.3362 34.7351C81.2571 34.6907 81.167 34.653 81.0667 34.6217C80.966 34.5907 80.8628 34.558 80.7576 34.5246C80.652 34.4908 80.5488 34.452 80.4485 34.4077C80.3478 34.3633 80.2581 34.3053 80.1786 34.2338C80.0998 34.162 80.0362 34.0726 79.9882 33.9652C79.9405 33.8575 79.9165 33.7248 79.9165 33.5671C79.9165 33.4408 79.9412 33.3183 79.991 33.2C80.0405 33.0817 80.1125 32.9772 80.2072 32.8856C80.3019 32.7948 80.4188 32.722 80.5573 32.6664C80.6954 32.6114 80.8537 32.584 81.0317 32.584C81.2313 32.584 81.4146 32.6157 81.5821 32.679C81.7495 32.742 81.8951 32.8328 82.0184 32.9511L81.8898 33.2Z" fill="#231F20"/>
<path fill-rule="evenodd" clip-rule="evenodd" d="M85.337 35.4032C85.3667 35.4032 85.3921 35.4144 85.4136 35.4376L85.6214 35.664C85.4765 35.8351 85.2995 35.9674 85.0911 36.0607C84.8823 36.1547 84.6315 36.2015 84.338 36.2015C84.0808 36.2015 83.848 36.1571 83.6392 36.0684C83.4308 35.9797 83.2531 35.8555 83.1054 35.696C82.9578 35.5369 82.8433 35.3465 82.7628 35.1247C82.6819 34.9026 82.6416 34.659 82.6416 34.3929C82.6416 34.1264 82.684 33.8829 82.7688 33.6611C82.8539 33.4393 82.9733 33.2486 83.1263 33.0895C83.2796 32.93 83.4629 32.8057 83.6767 32.717C83.89 32.6283 84.126 32.584 84.3853 32.584C84.6375 32.584 84.8611 32.6252 85.0575 32.7075C85.254 32.7896 85.4242 32.8987 85.5694 33.0349L85.3963 33.2792C85.385 33.2971 85.3705 33.3119 85.3532 33.3235C85.3359 33.3348 85.3133 33.3408 85.2854 33.3408C85.254 33.3408 85.2172 33.3253 85.1752 33.294C85.1331 33.2626 85.078 33.2274 85.0092 33.1891C84.941 33.1507 84.8565 33.1155 84.7559 33.0842C84.6552 33.0532 84.5301 33.0374 84.38 33.0374C84.2037 33.0374 84.0423 33.0683 83.8953 33.1299C83.7487 33.1915 83.6223 33.2802 83.5159 33.396C83.4096 33.5119 83.3273 33.6537 83.2686 33.8223C83.21 33.9906 83.1807 34.1807 83.1807 34.3929C83.1807 34.608 83.2111 34.7991 83.2722 34.967C83.3333 35.1342 83.417 35.2768 83.5244 35.3933C83.6318 35.5098 83.7576 35.5985 83.9027 35.6594C84.0479 35.72 84.2044 35.7502 84.3729 35.7502C84.475 35.7502 84.5665 35.7442 84.6485 35.7319C84.7297 35.7196 84.805 35.7013 84.8735 35.6763C84.9417 35.6517 85.0063 35.6203 85.0674 35.5816C85.1286 35.5429 85.1886 35.4968 85.248 35.4422C85.261 35.431 85.2752 35.4215 85.29 35.4141C85.3048 35.4067 85.3204 35.4032 85.337 35.4032Z" fill="#231F20"/>
<path fill-rule="evenodd" clip-rule="evenodd" d="M88.9584 34.3927C88.9584 34.1822 88.9294 33.9931 88.8718 33.8259C88.8142 33.6584 88.7319 33.5162 88.626 33.3997C88.5193 33.2832 88.391 33.1934 88.2402 33.1311C88.089 33.0684 87.9205 33.0371 87.7343 33.0371C87.5482 33.0371 87.3793 33.0684 87.2288 33.1311C87.078 33.1934 86.949 33.2832 86.8416 33.3997C86.7343 33.5162 86.6519 33.6584 86.5944 33.8259C86.5368 33.9931 86.5078 34.1822 86.5078 34.3927C86.5078 34.6046 86.5368 34.7939 86.5944 34.9604C86.6519 35.1273 86.7343 35.2688 86.8416 35.3853C86.949 35.5022 87.078 35.5912 87.2288 35.6528C87.3793 35.7144 87.5482 35.7454 87.7343 35.7454C87.9205 35.7454 88.089 35.7144 88.2402 35.6528C88.391 35.5912 88.5193 35.5022 88.626 35.3853C88.7319 35.2688 88.8142 35.1273 88.8718 34.9604C88.9294 34.7939 88.9584 34.6046 88.9584 34.3927ZM89.4976 34.3924C89.4976 34.6568 89.4552 34.8993 89.3704 35.1204C89.2856 35.3414 89.1655 35.5318 89.0104 35.692C88.8557 35.8522 88.6706 35.9768 88.4544 36.0655C88.2382 36.1542 87.9983 36.1985 87.7348 36.1985C87.4727 36.1985 87.2332 36.1542 87.0163 36.0655C86.7997 35.9768 86.6139 35.8522 86.4602 35.692C86.3059 35.5318 86.1858 35.3414 86.1003 35.1204C86.0144 34.8993 85.9717 34.6568 85.9717 34.3924C85.9717 34.1295 86.0144 33.887 86.1003 33.6655C86.1858 33.4438 86.3059 33.2526 86.4602 33.0928C86.6139 32.9327 86.7997 32.8074 87.0163 32.718C87.2332 32.6286 87.4727 32.5835 87.7348 32.5835C87.9983 32.5835 88.2382 32.6286 88.4544 32.718C88.6706 32.8074 88.8557 32.9327 89.0104 33.0928C89.1655 33.2526 89.2856 33.4438 89.3704 33.6655C89.4552 33.887 89.4976 34.1295 89.4976 34.3924Z" fill="#231F20"/>
<path fill-rule="evenodd" clip-rule="evenodd" d="M93.1645 32.6235V36.1618H92.8975C92.8565 36.1618 92.8219 36.1545 92.795 36.1397C92.7678 36.1249 92.7403 36.1013 92.712 36.0682L90.7065 33.4835C90.7101 33.5278 90.7129 33.5711 90.715 33.6141C90.7178 33.657 90.7189 33.6971 90.7189 33.7348V36.1618H90.2568V32.6235H90.5285C90.5748 32.6235 90.6094 32.6292 90.6324 32.6397C90.6553 32.6503 90.6811 32.6746 90.709 32.7122L92.7194 35.2994C92.7148 35.2519 92.711 35.2055 92.7085 35.16C92.706 35.115 92.7046 35.0728 92.7046 35.0333V32.6235H93.1645Z" fill="#231F20"/>
<path fill-rule="evenodd" clip-rule="evenodd" d="M95.9913 33.2C95.9751 33.2281 95.9574 33.2486 95.9398 33.2619C95.9214 33.275 95.8981 33.2813 95.8702 33.2813C95.8405 33.2813 95.8069 33.2676 95.7688 33.2408C95.731 33.2137 95.6836 33.1831 95.6268 33.1493C95.5699 33.1159 95.5017 33.0856 95.4229 33.0585C95.3435 33.0314 95.2488 33.0176 95.1386 33.0176C95.0347 33.0176 94.9432 33.0314 94.8651 33.0585C94.7867 33.0856 94.7214 33.1225 94.6687 33.1694C94.6157 33.2162 94.5758 33.2711 94.5486 33.3344C94.5214 33.3978 94.508 33.4661 94.508 33.54C94.508 33.6354 94.532 33.7143 94.5808 33.7769C94.6295 33.8389 94.6931 33.8927 94.7726 33.9371C94.8514 33.9814 94.9411 34.0198 95.0418 34.0525C95.1425 34.0856 95.2456 34.1194 95.3512 34.155C95.4565 34.1902 95.5593 34.231 95.6603 34.2771C95.7607 34.3229 95.8507 34.3806 95.9295 34.4506C96.009 34.5203 96.0726 34.6059 96.1213 34.7069C96.1701 34.8076 96.1941 34.9315 96.1941 35.0776C96.1941 35.2335 96.1676 35.3799 96.1139 35.5161C96.0602 35.6527 95.9825 35.7717 95.8804 35.8738C95.778 35.9755 95.6522 36.0554 95.5031 36.1135C95.3537 36.1719 95.1845 36.2011 94.9951 36.2011C94.881 36.2011 94.7708 36.1902 94.6634 36.168C94.5564 36.1459 94.455 36.1145 94.3596 36.0744C94.2635 36.0343 94.1742 35.9857 94.0912 35.929C94.0081 35.8724 93.9332 35.8087 93.8672 35.7379L94.018 35.4866C94.0329 35.4669 94.0509 35.4507 94.0714 35.4373C94.0919 35.4243 94.1152 35.4179 94.142 35.4179C94.1763 35.4179 94.2166 35.4359 94.2618 35.4718C94.307 35.508 94.3632 35.5478 94.4299 35.5915C94.4967 35.6351 94.5765 35.6745 94.6698 35.7111C94.7627 35.7471 94.8764 35.765 95.01 35.765C95.1184 35.765 95.2159 35.7506 95.3018 35.7221C95.3873 35.6932 95.4593 35.6524 95.518 35.5985C95.5763 35.5454 95.6215 35.4809 95.6526 35.4056C95.684 35.3299 95.6999 35.2458 95.6999 35.1543C95.6999 35.0504 95.6755 34.966 95.6282 34.9001C95.5801 34.8347 95.5166 34.7794 95.4378 34.7351C95.3586 34.6907 95.2686 34.653 95.1682 34.6217C95.0676 34.5907 94.9644 34.558 94.8591 34.5246C94.7535 34.4908 94.6504 34.452 94.55 34.4077C94.4494 34.3633 94.3596 34.3053 94.2801 34.2338C94.2014 34.162 94.1378 34.0726 94.0897 33.9652C94.0421 33.8575 94.018 33.7248 94.018 33.5671C94.018 33.4408 94.0428 33.3183 94.0926 33.2C94.142 33.0817 94.2141 32.9772 94.3088 32.8856C94.4034 32.7948 94.5204 32.722 94.6588 32.6664C94.797 32.6114 94.9552 32.584 95.1333 32.584C95.3329 32.584 95.5162 32.6157 95.6836 32.679C95.8511 32.742 95.9966 32.8328 96.1199 32.9511L95.9913 33.2Z" fill="#231F20"/>
<path fill-rule="evenodd" clip-rule="evenodd" d="M96.9707 36.1618H97.4999V32.6235H96.9707V36.1618Z" fill="#231F20"/>
<path fill-rule="evenodd" clip-rule="evenodd" d="M101.421 32.6235V36.1618H101.154C101.113 36.1618 101.079 36.1545 101.052 36.1397C101.025 36.1249 100.997 36.1013 100.969 36.0682L98.9634 33.4835C98.9669 33.5278 98.9697 33.5711 98.9719 33.6141C98.9747 33.657 98.9757 33.6971 98.9757 33.7348V36.1618H98.5137V32.6235H98.7853C98.8316 32.6235 98.8662 32.6292 98.8892 32.6397C98.9122 32.6503 98.9379 32.6746 98.9658 32.7122L100.976 35.2994C100.972 35.2519 100.968 35.2055 100.965 35.16C100.963 35.115 100.961 35.0728 100.961 35.0333V32.6235H101.421Z" fill="#231F20"/>
<path fill-rule="evenodd" clip-rule="evenodd" d="M102.33 34.6487H104.313V34.2988H102.33V34.6487Z" fill="#231F20"/>
<path fill-rule="evenodd" clip-rule="evenodd" d="M108.953 32.6235V36.1618H108.493V33.6436C108.493 33.606 108.495 33.5658 108.497 33.5229C108.5 33.4803 108.503 33.4367 108.506 33.3923L107.324 35.5532C107.283 35.6338 107.219 35.674 107.134 35.674H107.06C106.974 35.674 106.911 35.6338 106.871 35.5532L105.667 33.3849C105.677 33.4771 105.682 33.563 105.682 33.6436V36.1618H105.22V32.6235H105.61C105.656 32.6235 105.692 32.6281 105.718 32.6369C105.743 32.6461 105.768 32.6714 105.791 32.7122L106.978 34.8313C107.001 34.8742 107.022 34.9189 107.042 34.9668C107.062 35.0143 107.081 35.0622 107.099 35.1097C107.134 35.0129 107.174 34.9189 107.22 34.8288L108.385 32.7122C108.406 32.6714 108.43 32.6461 108.455 32.6369C108.481 32.6281 108.517 32.6235 108.563 32.6235H108.953Z" fill="#231F20"/>
<path fill-rule="evenodd" clip-rule="evenodd" d="M111.852 34.8431L111.325 33.471C111.287 33.377 111.249 33.2588 111.212 33.1162C111.194 33.1866 111.175 33.2521 111.156 33.313C111.137 33.3739 111.118 33.4281 111.1 33.4756L110.576 34.8431H111.852ZM112.893 36.1614H112.487C112.441 36.1614 112.403 36.1501 112.374 36.1269C112.344 36.104 112.322 36.0744 112.309 36.0385L111.995 35.2176H110.43L110.116 36.0385C110.104 36.0695 110.083 36.0976 110.052 36.1233C110.02 36.1487 109.982 36.1614 109.938 36.1614H109.532L110.946 32.623H111.478L112.893 36.1614Z" fill="#231F20"/>
<path fill-rule="evenodd" clip-rule="evenodd" d="M116.033 34.3927C116.033 34.1822 116.004 33.9939 115.947 33.8274C115.889 33.6605 115.807 33.5194 115.7 33.4032C115.594 33.2874 115.465 33.1991 115.315 33.1385C115.164 33.0776 114.995 33.0474 114.809 33.0474H114.003V35.7377H114.809C114.995 35.7377 115.164 35.7074 115.315 35.6469C115.465 35.586 115.594 35.4976 115.7 35.3822C115.807 35.266 115.889 35.1252 115.947 34.9591C116.004 34.7936 116.033 34.6046 116.033 34.3927ZM116.572 34.3927C116.572 34.657 116.529 34.8978 116.445 35.1146C116.36 35.3315 116.24 35.5173 116.085 35.6726C115.93 35.8278 115.744 35.9482 115.528 36.0337C115.312 36.1189 115.072 36.1615 114.809 36.1615H113.474V32.6235H114.809C115.072 32.6235 115.312 32.6661 115.528 32.7517C115.744 32.8368 115.93 32.9572 116.085 33.1125C116.24 33.2677 116.36 33.4543 116.445 33.6718C116.529 33.8893 116.572 34.1297 116.572 34.3927Z" fill="#231F20"/>
<path fill-rule="evenodd" clip-rule="evenodd" d="M117.388 36.1618H117.917V32.6235H117.388V36.1618Z" fill="#231F20"/>
<path fill-rule="evenodd" clip-rule="evenodd" d="M120.74 33.2C120.724 33.2281 120.706 33.2486 120.689 33.2619C120.67 33.275 120.647 33.2813 120.619 33.2813C120.59 33.2813 120.556 33.2676 120.518 33.2408C120.48 33.2137 120.433 33.1831 120.376 33.1493C120.319 33.1159 120.251 33.0856 120.172 33.0585C120.092 33.0314 119.998 33.0176 119.888 33.0176C119.784 33.0176 119.692 33.0314 119.614 33.0585C119.536 33.0856 119.47 33.1225 119.418 33.1694C119.365 33.2162 119.325 33.2711 119.298 33.3344C119.27 33.3978 119.257 33.4661 119.257 33.54C119.257 33.6354 119.281 33.7143 119.33 33.7769C119.379 33.8389 119.442 33.8927 119.522 33.9371C119.6 33.9814 119.69 34.0198 119.791 34.0525C119.891 34.0856 119.995 34.1194 120.1 34.155C120.206 34.1902 120.308 34.231 120.409 34.2771C120.51 34.3229 120.6 34.3806 120.679 34.4506C120.758 34.5203 120.822 34.6059 120.87 34.7069C120.919 34.8076 120.943 34.9315 120.943 35.0776C120.943 35.2335 120.917 35.3799 120.863 35.5161C120.809 35.6527 120.732 35.7717 120.629 35.8738C120.527 35.9755 120.401 36.0554 120.252 36.1135C120.103 36.1719 119.934 36.2011 119.744 36.2011C119.63 36.2011 119.52 36.1902 119.412 36.168C119.305 36.1459 119.204 36.1145 119.109 36.0744C119.013 36.0343 118.923 35.9857 118.84 35.929C118.757 35.8724 118.682 35.8087 118.616 35.7379L118.767 35.4866C118.782 35.4669 118.8 35.4507 118.82 35.4373C118.841 35.4243 118.864 35.4179 118.891 35.4179C118.925 35.4179 118.966 35.4359 119.011 35.4718C119.056 35.508 119.112 35.5478 119.179 35.5915C119.246 35.6351 119.326 35.6745 119.419 35.7111C119.512 35.7471 119.625 35.765 119.759 35.765C119.867 35.765 119.965 35.7506 120.051 35.7221C120.136 35.6932 120.208 35.6524 120.267 35.5985C120.325 35.5454 120.37 35.4809 120.402 35.4056C120.433 35.3299 120.449 35.2458 120.449 35.1543C120.449 35.0504 120.425 34.966 120.377 34.9001C120.329 34.8347 120.266 34.7794 120.187 34.7351C120.108 34.6907 120.018 34.653 119.917 34.6217C119.817 34.5907 119.713 34.558 119.608 34.5246C119.503 34.4908 119.399 34.452 119.299 34.4077C119.198 34.3633 119.109 34.3053 119.029 34.2338C118.95 34.162 118.887 34.0726 118.839 33.9652C118.791 33.8575 118.767 33.7248 118.767 33.5671C118.767 33.4408 118.792 33.3183 118.842 33.2C118.891 33.0817 118.963 32.9772 119.058 32.8856C119.152 32.7948 119.269 32.722 119.408 32.6664C119.546 32.6114 119.704 32.584 119.882 32.584C120.082 32.584 120.265 32.6157 120.433 32.679C120.6 32.742 120.746 32.8328 120.869 32.9511L120.74 33.2Z" fill="#231F20"/>
<path fill-rule="evenodd" clip-rule="evenodd" d="M124.477 34.3927C124.477 34.1822 124.448 33.9931 124.39 33.8259C124.333 33.6584 124.25 33.5162 124.145 33.3997C124.038 33.2832 123.91 33.1934 123.759 33.1311C123.608 33.0684 123.439 33.0371 123.253 33.0371C123.067 33.0371 122.898 33.0684 122.747 33.1311C122.597 33.1934 122.468 33.2832 122.36 33.3997C122.253 33.5162 122.17 33.6584 122.113 33.8259C122.055 33.9931 122.026 34.1822 122.026 34.3927C122.026 34.6046 122.055 34.7939 122.113 34.9604C122.17 35.1273 122.253 35.2688 122.36 35.3853C122.468 35.5022 122.597 35.5912 122.747 35.6528C122.898 35.7144 123.067 35.7454 123.253 35.7454C123.439 35.7454 123.608 35.7144 123.759 35.6528C123.91 35.5912 124.038 35.5022 124.145 35.3853C124.25 35.2688 124.333 35.1273 124.39 34.9604C124.448 34.7939 124.477 34.6046 124.477 34.3927ZM125.016 34.3924C125.016 34.6568 124.974 34.8993 124.889 35.1204C124.804 35.3414 124.684 35.5318 124.529 35.692C124.374 35.8522 124.189 35.9768 123.973 36.0655C123.757 36.1542 123.517 36.1985 123.253 36.1985C122.991 36.1985 122.752 36.1542 122.535 36.0655C122.318 35.9768 122.132 35.8522 121.979 35.692C121.824 35.5318 121.704 35.3414 121.619 35.1204C121.533 34.8993 121.49 34.6568 121.49 34.3924C121.49 34.1295 121.533 33.887 121.619 33.6655C121.704 33.4438 121.824 33.2526 121.979 33.0928C122.132 32.9327 122.318 32.8074 122.535 32.718C122.752 32.6286 122.991 32.5835 123.253 32.5835C123.517 32.5835 123.757 32.6286 123.973 32.718C124.189 32.8074 124.374 32.9327 124.529 33.0928C124.684 33.2526 124.804 33.4438 124.889 33.6655C124.974 33.887 125.016 34.1295 125.016 34.3924Z" fill="#231F20"/>
<path fill-rule="evenodd" clip-rule="evenodd" d="M128.7 32.6235V36.1618H128.433C128.392 36.1618 128.357 36.1545 128.33 36.1397C128.303 36.1249 128.275 36.1013 128.247 36.0682L126.242 33.4835C126.245 33.5278 126.248 33.5711 126.25 33.6141C126.253 33.657 126.254 33.6971 126.254 33.7348V36.1618H125.792V32.6235H126.064C126.11 32.6235 126.145 32.6292 126.168 32.6397C126.19 32.6503 126.216 32.6746 126.244 32.7122L128.255 35.2994C128.25 35.2519 128.246 35.2055 128.244 35.16C128.241 35.115 128.24 35.0728 128.24 35.0333V32.6235H128.7Z" fill="#231F20"/>
</g>
</svg>
