<svg width="1179" height="258" viewBox="0 0 1179 258" fill="none" xmlns="http://www.w3.org/2000/svg">
<rect width="1179" height="258" fill="black" fill-opacity="0"/>
<mask id="mask0" mask-type="alpha" maskUnits="userSpaceOnUse" x="0" y="0" width="1179" height="258">
<path fill-rule="evenodd" clip-rule="evenodd" d="M0.000488281 0.0361328H1178.18V257.801H0.000488281V0.0361328Z" fill="white"/>
</mask>
<g mask="url(#mask0)">
<path d="M1178.18 232.76H1094.16V221.662H1090.46V133.21V131.738V130.274L1087.53 131.738L1084.62 121.851V120.292V118.912L1081.68 120.292L1079.51 108.848L1076.5 107.106L1073.67 105.611H1068.12V107.106V108.848H1054.95V107.106H1050.7V103.579H1043.51V107.106H1032.19V103.579H1025V107.106L1022.82 108.848H1018.25V107.106H1014.55V105.501H1008.88V107.106V108.848L1006.52 120.292L1004.34 118.912L1001.41 120.292V121.851V131.738L998.497 130.274L995.56 131.738V133.21V186.93H983.783V221.12H977.052V208.68H953.544V203.465H938.277V195.395L935.697 172.191H919.273V165.117H890.777V172.191H880.31V195.874H875.474V226.355H870.313V221.414L867.579 216.473H851.082V209.524H845.877V205.747H825.89V209.524L822.51 112.716H809.29V104.386H803.795L800.517 103.785V99.6241L799.876 103.785H795.59L785.338 104.386V96.6555L784.696 104.386L781.333 103.658L778.47 104.386L775.721 102.67L772.853 104.386L770.255 112.716H763.958V219.315H748.987V194.799H744.341V110.811L743.156 110.07L741.809 102.863L741.168 110.07H734.952L730.862 110.811V100.816H718.198V96.4737L716.342 94.47H708.133V96.4737L705.698 95.3479L703.263 87.6707L702.623 95.3479H681.406V96.4737L678.969 85.9099L678.329 96.4737H672.155V100.816H664.421V110.811V188.004L662.199 193.632L659.987 230.759H655.962V176.596H646.17V171.579H628.292V166.328H609.713V171.579H604.505V169.349H594.079V171.579L590.7 165.282H585.254V131.935L584.644 165.282H575.067V171.579H565.98V176.596H552.967V180.826H548.812V97.6012H542.979V76.8833L539.919 75.2632H525.008V76.8833H518.404V97.6012H512.572V182.817H506.871V175.17L503.607 85.3763H498.228V59.7874H493.968V31.3253H487.622V59.7874V85.3763H482.516V65.6862L445.119 77.6422V85.3763V88.8191L442.52 107.523H435.879V99.9609L437.43 98.5343H430.862V93.655L415.231 72.2435L402.341 93.655L399.603 98.5343H394.584V99.9609V107.523H381.832L384.392 109.276V172.053H380.327V149.967H359.899V152.134H355.039V162.31H347.302V230.578H336.521V111.792L328.319 103.632V95.5464L321.265 88.5259V79.6417L316.301 74.7037L316.318 65.0706L307.454 56.2508L305.279 50.827L303.084 0.0361328L300.887 50.827L298.71 56.2508L289.851 65.0706V74.7037L284.901 79.6417V88.5259L277.845 95.5464V103.632L269.643 111.792V161.264H259.525V188.693H249.922V257.801H240.743V153.859V148.363H210.741V141.039H204.003V105.634L199.523 101.091V88.1825L194.915 83.5176V68.7722L174.541 54.2622L172.963 46.4167L171.377 54.2999L151.054 68.7722V83.5176L146.449 88.1825V101.089L141.969 105.634V141.039H135.231V206.08H125.966V249.188H107.069V257.801H103.097V218.424H95.394V197.748L92.3954 192.848H58.649V197.748H53.3988V232.76H0.000488281" stroke="#B5B6BE"/>
</g>
</svg>
